<?xml version="1.0" standalone="no"?>
<!DOCTYPE svg PUBLIC "-//W3C//DTD SVG 1.1//EN" "http://www.w3.org/Graphics/SVG/1.1/DTD/svg11.dtd" >
<svg xmlns="http://www.w3.org/2000/svg">
<metadata>Generated by IcoMoon</metadata>
<defs>
<font id="graphicon" horiz-adv-x="1024">
<font-face units-per-em="1024" ascent="960" descent="-64" />
<missing-glyph horiz-adv-x="1024" />
<glyph unicode="&#x20;" horiz-adv-x="512" d="" />
<glyph unicode="&#xe900;" glyph-name="bank-card" d="M134.095 544.914h438.857v-48.762h-438.857v48.762zM134.095 423.010h243.81v-48.762h-243.81v48.762zM963.048 861.867h-902.095c-26.917 0-48.762-21.845-48.762-48.762v-609.524c0-26.917 21.845-48.762 48.762-48.762h902.095c26.917 0 48.762 21.845 48.762 48.762v609.524c0 26.917-21.845 48.762-48.762 48.762zM975.238 813.105v-146.286h-914.286v146.286h914.286zM60.952 203.581v414.476h914.31l0.024-414.476h-914.334z" />
<glyph unicode="&#xe901;" glyph-name="bayonet" d="M972.8 25.6v256h-102.4v-153.6c-8.346-57.83-67.866-102.4-128-102.4s-119.757 41.6-128 102.4h-358.4c-8.243-60.8-65.126-102.4-128-102.4s-117.478 42.931-126.208 98.637h-1.792v345.088h1.229l203.571 247.475h460.8l204.8-256h102.4v358.4c0 18.842 6.758 25.6 25.6 25.6s25.6-6.758 25.6-25.6v-793.6h-51.2zM51.2 332.8h102.4v76.8h-102.4v-76.8zM640 665.6h-409.6l-179.2-204.8h768l-179.2 204.8zM204.8 409.6v-76.8h76.8v76.8h-76.8zM332.8 409.6v-76.8h76.8v76.8h-76.8zM460.8 409.6v-76.8h76.8v76.8h-76.8zM665.6 409.6h-76.8v-76.8h76.8v76.8zM819.2 409.6h-102.4v-76.8h102.4v76.8zM819.2 162.125v119.475h-768v-153.6c0-27.238 47.232-51.2 76.8-51.2s76.8 21.453 76.8 51.2l-0.435 51.482 461.235-0.282c-1.894-5.658 0-44.826 0-51.2 0-29.747 48.512-51.2 76.8-51.2s76.8 22.912 76.8 51.2c0 6.042-1.51 28.749-3.456 34.125h3.456zM972.8 409.6h-102.4v-76.8h102.4v76.8z" />
<glyph unicode="&#xe902;" glyph-name="big-car" d="M871.131 463.604l-72.972 145.359h-196.998v-368.64h-34.938v548.742h-521.899v-680.277h129.219c15.921-57.856 68.876-100.523 131.73-100.523s115.785 42.667 131.682 100.523h225.353c15.896-57.856 68.827-100.523 131.682-100.523s115.785 42.667 131.682 100.523h81.457v354.816h-135.997zM433.42 192.146h232.448c-4.12-11.166-6.9-22.942-7.973-35.23h-216.503c-1.073 12.288-3.852 24.064-7.973 35.23zM169.155 156.965h-76.678v583.997h425.594v-500.638h-114.981c-24.844 25.478-59.465 41.374-97.792 41.374-71.363 0-130.048-54.979-136.143-124.733zM305.298 56.344c-48.859 0-88.625 39.765-88.625 88.625s39.765 88.6 88.625 88.6c48.811 0 88.6-39.741 88.6-88.6s-39.79-88.625-88.6-88.625zM794.014 56.344c-48.859 0-88.6 39.765-88.6 88.625s39.741 88.6 88.6 88.6 88.625-39.741 88.625-88.6-39.765-88.625-88.625-88.625zM959.025 216.259v-59.294h-28.891c-6.12 69.754-64.756 124.733-136.119 124.733-38.327 0-72.948-15.896-97.792-41.374h-46.933v320.488h119.125l72.972-145.31h117.638v-199.241z" />
<glyph unicode="&#xe903;" glyph-name="browser_account" d="M1019.341 302.31c-15.693-58.726-71.066-96.896-150.528-115.712-78.72-112.717-209.254-186.598-357.222-186.598-239.027 0-432.896 192.486-435.302 430.771-58.47 64.358-87.68 131.533-72.448 188.518 16.435 61.414 81.459 81.126 172.57 93.696 79.872 96.154 200.346 157.414 335.181 157.414 219.955 0 401.357-163.098 430.874-374.758 62.771-63.334 93.363-131.661 76.877-193.331zM969.856 315.597c8.499 31.821-0.794 66.381-23.654 101.043-2.56-60.518-17.408-117.734-42.24-169.395 34.304 15.539 57.779 37.965 65.894 68.352zM511.59 51.2c111.693 0 211.942 47.898 282.138 123.904-96.102-7.885-213.581 4.941-335.616 37.709-127.795 34.304-242.918 95.539-326.042 164.915 27.827-184.755 186.88-326.528 379.52-326.528zM53.35 606.003c-8.448-31.565 2.739-68.019 28.134-105.446 8.602 56.781 28.032 109.875 56.346 157.235-44.851-8.32-75.392-17.766-84.48-51.789zM511.59 819.2c-208.563 0-377.933-166.118-383.744-373.12 76.646-74.573 202.624-145.843 343.526-183.654 138.317-37.146 269.44-50.355 362.906-35.302 38.835 59.981 61.619 131.328 61.619 208.077 0 212.070-172.058 384-384.307 384z" />
<glyph unicode="&#xe904;" glyph-name="car" d="M869.010 861.867h-683.422l-149.016-302.665v-325.144c0-69.096 47.25-146.676 116.151-146.676 73.484 0 126.732 43.057 136.314 91.819h477.306c9.387-48.762 49.323-91.819 121.149-91.819 65.804 0 124.343 75.703 124.343 146.676v325.754l-142.824 302.056zM963.048 234.057c0-42.91-47.909-91.819-86.040-91.819-71.899 0-84.626 41.96-84.626 73.533v12.19h-560.762v-12.19c0-18.188-0.853-73.533-84.139-73.533-36.645 0-62.147 47.47-62.147 91.819v164.571h74.191c14.677-38.449 51.541-65.902 94.891-65.902 43.325 0 80.165 27.453 94.842 65.902h356.45c14.702-38.449 51.517-65.902 94.891-65.902 43.325 0 80.165 27.453 94.842 65.902h67.608v-164.571zM201.289 435.102c0 29.574 23.82 53.614 53.102 53.614 29.257 0 53.053-24.040 53.053-53.614s-23.796-53.614-53.053-53.614c-29.282 0-53.102 24.040-53.102 53.614zM747.471 435.102c0 29.574 23.82 53.614 53.102 53.614 29.233 0 53.053-24.040 53.053-53.614s-23.82-53.614-53.053-53.614c-29.282 0-53.102 24.040-53.102 53.614zM963.048 447.39h-61.903c-6.12 50.615-48.616 90.088-100.571 90.088-51.98 0-94.501-39.497-100.62-90.088h-344.966c-6.12 50.615-48.64 90.088-100.571 90.088-51.98 0-94.501-39.497-100.62-90.088h-68.462v101.669l132.218 264.046h621.154l124.343-264.655v-101.059z" />
<glyph unicode="&#xe905;" glyph-name="case" d="M611.377 139.191c-9.899 29.135-42.277 51.127-75.337 51.127h-397.678c-33.012 0-65.39-21.967-75.24-50.981l-43.154-124.245c-5.705-16.75-3.706-33.719 5.486-46.543 9.533-13.336 25.844-20.968 44.69-20.968h534.040c18.895 0 35.23 7.656 44.763 21.016 9.192 12.824 11.191 29.794 5.437 46.592l-43.008 124.002zM604.184-3.657h-534.040c-2.414 0-3.877 0.39-4.51 0.39-0.049 0-0.098 0-0.122-0.024 0.024 0.536 0.171 1.414 0.536 2.511l43.154 124.294c3.291 9.63 16.896 18.066 29.135 18.066h397.702c12.044 0 25.941-8.606 29.233-18.213l43.008-124.050c0.39-1.122 0.512-1.975 0.756-2.243-0.756-0.293-2.219-0.731-4.852-0.731zM990.671 271.579c-3.438 16.75-13.239 31.013-27.624 40.253l-445.635 287.744c-4.194 2.706-8.704 4.657-13.336 6.217l21.626 32.012c7.29 10.752 10.898 23.162 10.703 35.864 13.897 1.877 26.819 6.9 37.083 14.799l22.382 17.14c14.58 11.166 22.528 27.038 21.821 43.52-0.658 16.506-9.947 31.671-25.332 41.594l-189.659 122.514c-9.655 6.266-20.309 9.582-30.866 9.582-23.333 0-42.667-15.579-49.274-39.668l-7.314-26.77c-3.511-12.702-2.877-26.575 0.756-39.741-11.849-4.535-22.406-12.264-29.623-22.942l-144.14-213.309c-7.314-10.874-10.85-23.454-10.533-36.303-13.751-1.829-26.917-6.51-37.059-14.287l-22.43-17.115c-14.531-11.166-22.479-27.014-21.845-43.496 0.658-16.506 9.874-31.671 25.332-41.691l189.757-122.539c9.655-6.217 20.309-9.509 30.842-9.509 23.333 0 42.642 15.604 49.25 39.692l7.314 26.819c3.486 12.654 2.901 26.405-0.683 39.497 11.825 4.657 22.333 12.386 29.55 23.113l22.309 33.012c3.535-3.779 7.387-7.314 11.849-10.191l445.538-287.695c10.435-6.754 22.528-10.338 35.060-10.338 21.577 0 41.521 10.533 53.37 28.062l31.476 46.494c9.484 14.117 12.8 31.037 9.338 47.665zM362.252 843.508l7.314 26.77c0.731 2.682 1.755 3.657 2.267 3.803 0.39 0 1.902-0.122 4.389-1.731l189.733-122.563c2.048-1.341 2.804-2.414 2.999-2.487-0.195-0.39-0.805-1.487-2.706-2.974l-22.382-17.14c-8.533-6.607-27.16-7.29-36.254-1.438l-132.876 85.748c-9.289 5.998-15.36 21.553-12.483 32.012zM305.81 374.857l-7.339-26.868c-0.707-2.633-1.707-3.633-1.926-3.73-0.024 0.049-1.146-0.585-4.681 1.682l-189.684 122.49c-2.024 1.317-2.853 2.462-3.072 2.462 0 0-0.024 0-0.024-0.024 0.073 0.317 0.78 1.585 2.755 3.121l22.406 17.091c8.533 6.51 27.087 7.266 36.108 1.536 0.049-0.024 0.098-0.073 0.146-0.122l132.827-85.748c0 0 0.024 0 0.049-0.024 9.265-5.949 15.311-21.431 12.434-31.866zM341.285 451.877c-4.364-6.51-14.677-8.509-21.48-4.12 0 0 0 0 0 0l-132.827 85.797c-0.024 0.024-0.098 0.049-0.122 0.073-3.218 2.121-5.437 5.315-6.193 9.045-0.756 3.682-0.024 7.436 2.024 10.484l144.116 213.26c2.779 4.145 7.656 6.632 12.995 6.632 2.121 0 5.339-0.439 8.533-2.511l132.876-85.748c3.291-2.121 5.534-5.388 6.29-9.143 0.756-3.657 0-7.363-2.121-10.484l-144.091-213.285zM940.91 251.221l-31.476-46.47c-2.755-4.12-7.631-6.607-12.946-6.607-2.146 0-5.388 0.439-8.582 2.511l-445.538 287.72c-3.316 2.146-5.583 5.413-6.339 9.167-0.756 3.682-0.024 7.412 2.024 10.459l31.451 46.47c2.779 4.145 7.631 6.632 12.922 6.632 3.072 0 6.022-0.853 8.558-2.511l445.635-287.768c3.291-2.121 5.534-5.364 6.339-9.118 0.756-3.657 0-7.412-2.048-10.484z" />
<glyph unicode="&#xe906;" glyph-name="cell_phone_imei" horiz-adv-x="683" d="M633.905-76.8h-585.143c-26.941 0-48.762 21.821-48.762 48.762v926.476c0 26.941 21.821 48.762 48.762 48.762h585.143c26.941 0 48.762-21.821 48.762-48.762v-926.476c0-26.941-21.821-48.762-48.762-48.762zM633.905 898.438h-585.143v-926.476h585.143v926.476zM146.286 849.676h390.095c26.941 0 48.762-21.821 48.762-48.762v-633.905c0-26.941-21.821-48.762-48.762-48.762h-390.095c-26.941 0-48.762 21.821-48.762 48.762v633.905c0 26.941 21.821 48.762 48.762 48.762zM146.286 167.010h390.095v633.905h-390.095v-633.905zM341.333 288.914c-13.458 0-24.381 10.923-24.381 24.381v243.81c0 13.458 10.923 24.381 24.381 24.381s24.381-10.923 24.381-24.381v-243.81c0-13.458-10.923-24.381-24.381-24.381zM341.333 630.248c-13.458 0-24.381 10.923-24.381 24.381s10.923 24.381 24.381 24.381c13.458 0 24.381-10.923 24.381-24.381s-10.923-24.381-24.381-24.381zM341.333 93.867c26.941 0 48.762-21.821 48.762-48.762s-21.821-48.762-48.762-48.762c-26.941 0-48.762 21.821-48.762 48.762s21.821 48.762 48.762 48.762z" />
<glyph unicode="&#xe907;" glyph-name="cell_phone_mac" horiz-adv-x="683" d="M633.905-76.8h-585.143c-26.941 0-48.762 21.821-48.762 48.762v926.476c0 26.941 21.821 48.762 48.762 48.762h585.143c26.941 0 48.762-21.821 48.762-48.762v-926.476c0-26.941-21.821-48.762-48.762-48.762zM633.905 898.438h-585.143v-926.476h585.143v926.476zM146.286 849.676h390.095c26.941 0 48.762-21.821 48.762-48.762v-633.905c0-26.941-21.821-48.762-48.762-48.762h-390.095c-26.941 0-48.762 21.821-48.762 48.762v633.905c0 26.941 21.821 48.762 48.762 48.762zM146.286 167.010h390.095v633.905h-390.095v-633.905zM463.238 557.105c0 26.941-21.821 48.762-48.762 48.762s-48.762-21.821-48.762-48.762v-243.81h-48.762v243.81c0 26.941-21.821 48.762-48.762 48.762s-48.762-21.821-48.762-48.762v-243.81h-48.762v243.81c0 53.858 43.666 97.524 97.524 97.524 29.306 0 55.272-13.19 73.143-33.646 17.871 20.456 43.837 33.646 73.143 33.646 53.858 0 97.524-43.666 97.524-97.524v-243.81h-48.762v243.81zM341.333 93.867c26.941 0 48.762-21.821 48.762-48.762s-21.821-48.762-48.762-48.762c-26.941 0-48.762 21.821-48.762 48.762s21.821 48.762 48.762 48.762z" />
<glyph unicode="&#xe908;" glyph-name="collective-household" d="M942.909 331.703h-291.255l4.559 4.047c-13.605 15.311-28.55 28.331-44.373 39.522h323.486v24.381c0 131.413-67.608 236.788-166.278 273.749 32.475 26.088 53.516 66.901 53.516 112.811 0 78.629-61.44 142.58-136.85 142.58-75.483 0-136.85-63.951-136.85-142.58 0-48.25 23.186-90.892 58.49-116.712-16.823-7.656-33.402-17.774-49.859-30.403-21.577 14.848-47.397 23.552-75.142 23.552-25.405 0-49.103-7.363-69.51-19.968-16.165 11.776-33.036 21.285-50.42 28.501 34.060 25.941 56.344 67.779 56.344 115.029 0 78.629-61.391 142.58-136.802 142.58-75.483 0-136.875-63.951-136.875-142.58 0-46.324 21.431-87.454 54.394-113.518-99.255-37.522-167.156-142.385-167.156-273.042v-24.381h320.926c-72.119-50.834-120.564-142.604-120.564-247.418v-24.381h222.647v-113.103c0-26.917 21.845-48.762 48.762-48.762h438.857c26.917 0 48.762 21.845 48.762 48.762v292.571c-0.049 26.917-21.918 48.762-48.811 48.762zM885.565 424.034h-302.519c22.284 25.381 36.059 59.075 36.059 96.11 0 31.525-9.996 60.611-26.722 84.236 32.158 23.479 63.439 34.621 97.475 34.621 107.13 0.024 186.612-88.99 195.706-214.967zM685.592 880.030c48.591 0 88.113-42.082 88.113-93.818s-39.522-93.794-88.113-93.794c-48.542 0-88.064 42.082-88.064 93.794s39.522 93.818 88.064 93.818zM570.344 520.143c0-51.761-39.497-93.867-88.040-93.867-48.591 0-88.113 42.106-88.113 93.867 0 51.712 39.522 93.769 88.113 93.769 48.518 0 88.040-42.057 88.040-93.769zM281.917 880.030c48.542 0 88.040-42.082 88.040-93.818s-39.497-93.794-88.040-93.794c-48.591 0-88.113 42.082-88.113 93.794s39.522 93.818 88.113 93.818zM281.502 639.025c32.183 0 64.171-10.728 93.818-30.135-18.7-24.381-29.94-55.198-29.94-88.722 0-37.059 13.726-70.729 36.059-96.11h-299.496c9.606 124.123 92.184 214.967 199.558 214.967zM455.29 282.941v-130.706h-172.885c10.216 121.393 95.988 216.503 199.899 216.503 38.181 0 75.045-12.946 106.837-37.035h-85.090c-26.917 0-48.762-21.845-48.762-48.762zM942.909-9.63h-438.857v292.571h438.857v-292.571zM690.152 120.661l-27.867-89.186c0-0.244 0.049-0.293 0.195-0.195l72.85 55.15c0.195 0.146 0.488 0.146 0.658 0l72.802-55.15c0.244-0.098 0.244-0.049 0.244 0.195l-27.867 89.186c0 0.244 0.049 0.512 0.244 0.658l72.85 55.15c0.146 0.146 0.146 0.244-0.098 0.244h-90.039c-0.195 0-0.512 0.195-0.536 0.439l-27.843 89.21c-0.049 0.195-0.146 0.195-0.195 0l-27.867-89.21c-0.098-0.244-0.341-0.439-0.512-0.439h-90.063c-0.171 0-0.219-0.098-0.073-0.244l72.802-55.15c0.268-0.195 0.366-0.439 0.317-0.658z" />
<glyph unicode="&#xe909;" glyph-name="document" d="M868.986 451.462h-17.676v332.020c0 21.87-24.088 58.075-51.566 58.075h-45.958v30.476c0 25.112-17.53 42.667-42.569 42.667h-510.366c-23.503 0-56.588-13.239-56.588-42.667v-323.048h-57.1c-24.186 0-40.424-21.406-40.424-53.248v-472.064c0-10.679 4.315-35.45 44.3-35.45h777.947c51.468 0 55.467 27.136 55.467 35.45v395.045c0 32.744-38.888 32.744-55.467 32.744zM802.548 783.482v-332.020h-261.705l-58.124 62.757c-15.262 23.064-32.597 34.767-51.541 34.767h-140.629v234.155c0 2.341 2.389 6.851 4.389 9.655h500.687c2.779-2.609 6.412-7.778 6.924-9.314zM193.024 864.427c2.511 0.829 5.632 1.512 7.826 1.512h504.174v-24.381h-415.622c-29.525 0-47.616-37.595-47.616-58.075v-234.496h-48.762v315.441zM875.691 37.278c-1.902-0.171-4.145-0.293-6.705-0.293h-773.486v458.752c0 1.658 0.122 3.17 0.293 4.486l334.238 0.146c1.341-0.488 6.266-3.998 12.898-14.385l46.568-50.152 29.428-33.134h350.037c2.56 0 4.803-0.024 6.705-0.073v-365.349zM339.31 719.653h414.476v-48.762h-414.476v48.762zM558.738 573.367h195.048v-48.762h-195.048v48.762z" />
<glyph unicode="&#xe90a;" glyph-name="email_account_suser" d="M614.221 26.061v51.021h1.894c8.96 71.859 54.963 132.147 118.528 160.973-26.24 23.347-43.085 57.011-43.085 94.874 0 70.426 57.114 127.514 127.539 127.514 70.451 0 127.565-57.088 127.565-127.514 0-37.862-16.845-71.526-43.085-94.874 63.565-28.826 109.542-89.114 118.528-160.973h1.894v-51.021h-409.779zM819.098 409.446c-42.24 0-76.518-34.253-76.518-76.518 0-42.24 34.278-76.518 76.518-76.518 42.266 0 76.544 34.278 76.544 76.518 0 42.266-34.278 76.518-76.544 76.518zM819.098 205.414c-76.237 0-139.085-55.578-151.296-128.333h302.618c-12.211 72.755-75.059 128.333-151.322 128.333zM921.6 756.685l-270.797-270.797 45.542-45.542-35.891-35.891-174.054 174.054-373.709-373.709h476.467v-51.2h-537.958c-28.262 0-51.2 22.912-51.2 51.2v588.8c0 27.418 21.606 49.613 48.691 50.944h875.418c26.47-1.306 47.565-22.554 48.512-49.126v-1.818h0.179v-332.416h-51.2v295.501zM51.2 204.8h9.856l-9.856 9.856v-9.856zM88.166 793.549l269.952-269.952-36.915-36.915-270.003 270.003v-541.594l425.139 425.114 10.061-10.061 10.061 10.061 117.427-117.402 270.746 270.746h-796.467z" />
<glyph unicode="&#xe90b;" glyph-name="email_accounts" d="M972.8-25.6h-921.6c-28.288 0-51.2 22.912-51.2 51.2v563.2h9.523l67.277 43.418v212.582c0 28.262 22.912 51.2 51.2 51.2h768c28.288 0 51.2-22.938 51.2-51.2v-212.582l67.277-43.418h9.523v-563.2c0-28.288-22.912-51.2-51.2-51.2zM868.224 25.6l-356.224 229.888-356.224-229.888h712.448zM51.2 552.832v-527.232h9.523l403.763 260.531-413.286 266.701zM896 844.8h-768v-280.192l384-247.808 384 247.808v280.192zM972.8 552.832l-413.286-266.701 403.763-260.531h9.523v527.232zM376.448 508.646c-28.544 29.286-44.006 69.786-44.006 115.123 0 46.515 15.462 85.811 46.387 117.12 33.69 34.483 78.899 52.531 132.813 52.531 91.955 0 153.805-55.757 153.805-138.368 0-47.744-21.018-89.037-57.088-111.514-15.462-9.626-33.69-15.232-48.768-15.232-20.992 0-33.69 10.419-33.69 28.083 0 0.384 0 1.178 0 2.406-10.701-14.054-17.843-19.661-30.131-24.090-6.349-1.997-14.669-3.584-21.786-3.584-37.683 0-59.469 26.445-59.469 71.782 0 70.579 42.803 125.952 97.92 125.952 21.402 0 35.277-8.832 40.038-24.883l4.736 17.254h36.48c-3.174-9.626-6.349-20.454-10.701-36.915l-26.957-102.272c-1.178-4.403-1.587-8.013-1.587-11.622 0-6.426 3.968-10.035 11.11-10.035 7.117 0 19.405 5.222 28.928 12.032 22.195 16.461 35.686 46.541 35.686 80.23 0 64.179-47.181 107.085-117.35 107.085-82.458 0-142.72-57.754-142.72-136.781 0-76.211 54.323-127.949 133.606-127.949 21.811 0 45.594 4.019 63.821 10.854 13.491 4.813 21.811 9.216 37.658 20.838l20.608-30.49c-21.402-12.826-31.693-18.022-49.152-23.654-23.373-7.629-48.742-11.622-74.112-11.622-51.942 0-95.539 16.435-126.080 47.718zM514.406 697.574c-21.811 0-40.422-15.667-52.326-44.518-6.349-16.051-10.317-35.712-10.317-51.763 0-24.448 8.346-36.89 24.986-36.89 13.082 0 28.134 10.419 39.245 26.88 12.698 19.635 21.811 50.918 21.811 75.392 0 20.454-7.936 30.899-23.398 30.899z" />
<glyph unicode="&#xe90c;" glyph-name="email_accounts_manger" d="M614.4 25.6v76.8c0 28.288 22.912 51.2 51.2 51.2v25.6c0 28.288 22.912 51.2 51.2 51.2h76.442v29.005c-43.52 11.75-75.699 51.379-75.699 98.944 0 56.781 45.67 102.835 102.016 102.835s102.042-46.054 102.042-102.835c0-48.179-32.998-88.294-77.338-99.456v-28.493h77.338c28.288 0 51.2-22.912 51.2-51.2v-25.6c28.288 0 51.2-22.912 51.2-51.2v-76.8h-409.6zM870.4 358.4c0 28.723-22.733 51.994-50.79 51.994s-50.816-23.27-50.816-51.994c0-28.723 22.758-51.994 50.816-51.994s50.79 23.27 50.79 51.994zM921.6 179.814h-204.058v-26.214h204.058v26.214zM972.621 102.4h-306.918v-26.24h306.918v26.24zM921.6 756.685l-270.797-270.797 45.542-45.542-35.891-35.891-174.054 174.054-373.709-373.709h476.467v-51.2h-537.958c-28.262 0-51.2 22.912-51.2 51.2v588.8c0 27.418 21.606 49.613 48.691 50.944h875.418c26.47-1.306 47.565-22.554 48.512-49.126v-1.818h0.179v-332.416h-51.2v295.501zM51.2 204.8h9.856l-9.856 9.856v-9.856zM88.166 793.549l269.952-269.952-36.915-36.915-270.003 270.003v-541.594l425.139 425.114 10.061-10.061 10.061 10.061 117.427-117.402 270.746 270.746h-796.467z" />
<glyph unicode="&#xe90d;" glyph-name="entity-registered" d="M972.8 25.6h-921.6c-28.288 0-51.2 22.912-51.2 51.2v716.8c0 28.288 22.912 51.2 51.2 51.2h921.6c28.288 0 51.2-22.912 51.2-51.2v-716.8c0-28.288-22.912-51.2-51.2-51.2zM972.8 793.6h-921.6v-716.8h921.6v716.8zM204.8 460.8l25.6 76.8 25.6-76.8h76.8l-51.2-51.2 25.6-76.8-76.8 51.2-76.8-51.2 25.6 76.8-51.2 51.2h76.8zM358.4 256l25.6 76.8 25.6-76.8h76.8l-51.2-51.2 25.6-76.8-76.8 51.2-76.8-51.2 25.6 76.8-51.2 51.2h76.8zM435.2 537.6l-102.4 76.8h128l51.2 128 51.2-128h128l-102.4-76.8 25.6-128-102.4 76.8-102.4-76.8 25.6 128zM614.4 256l25.6 76.8 25.6-76.8h76.8l-51.2-51.2 25.6-76.8-76.8 51.2-76.8-51.2 25.6 76.8-51.2 51.2h76.8zM742.4 409.6l-51.2 51.2h76.8l25.6 76.8 25.6-76.8h76.8l-51.2-51.2 25.6-76.8-76.8 51.2-76.8-51.2 25.6 76.8z" />
<glyph unicode="&#xe90e;" glyph-name="families" d="M191.537 671.427c67.56 0 122.49 54.955 122.49 122.49s-54.93 122.49-122.49 122.49c-67.535 0-122.466-54.955-122.466-122.49s54.955-122.49 122.466-122.49zM191.537 867.645c40.667 0 73.728-33.061 73.728-73.728s-33.061-73.728-73.728-73.728c-40.643 0-73.704 33.061-73.704 73.728s33.061 73.728 73.704 73.728zM292.571 222.208c-13.483 0-24.381-10.898-24.381-24.381v-119.564c-3.316-1.146-9.070-2.341-16.262-2.341h-120.734c-4.291 0-7.339 0.439-9.289 0.951v246.443l-48.762 60.367v202.703c0 0.561 0 1.048 0 1.536h219.429c13.483 0 24.381 10.923 24.381 24.381s-10.898 24.381-24.381 24.381h-221.769c-10.874-0.024-46.421-3.657-46.421-50.298v-219.941l48.762-60.367v-232.887c0-21.236 15.214-46.056 58.051-46.056h120.734c38.888 0 65.024 18.53 65.024 46.056v124.611c0 13.483-10.898 24.405-24.381 24.405zM448.146 519.997c56.71 0 102.863 46.153 102.863 102.863s-46.153 102.863-102.863 102.863-102.863-46.129-102.863-102.863 46.153-102.863 102.863-102.863zM448.146 676.986c29.842 0 54.101-24.283 54.101-54.101s-24.283-54.126-54.101-54.126-54.101 24.283-54.101 54.101 24.259 54.126 54.101 54.126zM690.42 573.318c67.56 0 122.49 54.955 122.49 122.49s-54.955 122.49-122.49 122.49c-67.535 0-122.466-54.955-122.466-122.49s54.955-122.49 122.466-122.49zM690.42 769.536c40.667 0 73.728-33.061 73.728-73.728s-33.061-73.728-73.728-73.728c-40.643 0-73.704 33.061-73.704 73.728s33.061 73.728 73.704 73.728zM950.857 344.113h-93.623l-16.774 151.259c-3.316 24.942-26.819 43.764-54.638 43.764h-176.299c-13.483 0-24.381-10.923-24.381-24.381s10.898-24.381 24.381-24.381h176.274c3.682 0 6.242-1.975 6.242-0.902l16.116-145.359h-223.013v97.743c0 27.77-29.282 48.518-55.467 48.518h-163.035c-26.917 0-49.688-22.211-49.688-48.518v-180.98l64.146-49.713 1.877-149.48c0-1.487-0.122-1.999-0.317-2.804l-3.023-13.8 8.021-9.46c6.534-7.656 14.775-8.802 19.749-8.802 1.317 0 2.389 0.098 3.145 0.146 0.975 0.098 2.389 0.195 4.413 0.195h48.274v-24.381c0-26.917 21.87-48.762 48.762-48.762h438.857c26.892 0 48.762 21.845 48.762 48.762v292.571c0 26.868-21.87 48.762-48.762 48.762zM431.567 75.922l-1.999 159.33-63.781 49.469 0.853 156.891h163.035c1.707 0 4.925-1.39 6.705-2.755v-94.769h-24.381c-26.892 0-48.762-21.87-48.762-48.762v-219.429h-31.671zM950.857 2.779h-438.857v292.571h438.857v-292.571zM759.369 177.298l-27.819 89.234c-0.073 0.195-0.171 0.195-0.219 0l-27.843-89.234c-0.098-0.244-0.341-0.39-0.536-0.39h-90.063c-0.171 0-0.219-0.146-0.049-0.244l72.777-55.15c0.219-0.195 0.317-0.488 0.268-0.658l-27.843-89.186c0-0.244 0.024-0.293 0.195-0.195l72.85 55.15c0.195 0.146 0.463 0.146 0.658 0l72.826-55.15c0.219-0.098 0.219-0.049 0.219 0.195l-27.843 89.186c0 0.195 0.024 0.488 0.244 0.658l72.826 55.15c0.146 0.098 0.146 0.244-0.073 0.244h-90.063c-0.146 0-0.463 0.146-0.512 0.39z" />
<glyph unicode="&#xe90f;" glyph-name="feiqiankezhongdianren" d="M896 76.8l51.2-153.6-128 102.4-128-102.4 51.2 153.6-102.4 76.8h128l51.891 128 50.509-128h128l-102.4-76.8zM819.2 153.6c-28.288 0-51.2-22.912-51.2-51.2s22.912-51.2 51.2-51.2c28.288 0 51.2 22.912 51.2 51.2s-22.912 51.2-51.2 51.2zM537.6 281.6v54.707c-25.805-18.509-52.173-29.107-76.8-29.107s-50.995 10.598-76.8 29.107v-54.707c0-33.382-21.427-66.227-51.2-76.8-105.856-13.747-190.234-38.502-230.4-76.8-5.683 0-10.65-2.202-14.899-5.325-5.274-8.013-9.344-11.802-10.701-20.275 0.026-0.205 1.075-4.838 1.101-5.043 2.406-0.666 102.118-122.957 382.899-122.957 83.789 0 151.168 10.931 204.8 26.24v-51.84c-54.861-12.672-121.472-25.6-204.8-25.6-348.723 0-426.778 145.178-428.544 147.61 0.051 0.077 0.128 0.179 0.154 0.282-4.301 9.574-6.81 20.122-6.81 31.309 0 29.030 16.307 54.016 40.090 67.072 47.514 45.67 134.323 68.634 241.51 86.528 14.131 0 25.6 11.469 25.6 25.6v103.27c-29.773 35.328-58.368 76.749-76.8 127.13-31.053 9.83-51.2 42.47-51.2 76.8 0 23.040 1.51 65.613 25.446 76.698 0.051-1.562 0.154-3.021 0.154 0.102 0 28.006-3.277 53.427 0 76.8 0 113.101 91.699 204.8 204.8 204.8h51.2c113.101 0 204.8-91.699 204.8-204.8 3.328-23.398 0-48.819 0-76.8 0-3.123 0.102-1.664 0.154-0.102 23.91-11.085 25.446-53.658 25.446-76.698 0-34.33-20.147-66.97-51.2-76.8-18.432-50.381-47.002-91.802-76.8-127.13v-103.27c0-14.131 11.469-25.6 25.6-25.6 47.283-7.885 90.266-14.234 128-25.6v-51.2c-41.882 15.104-94.157 17.894-153.6 25.6-29.773 10.573-51.2 43.418-51.2 76.8zM614.4 537.6c0 0 51.2 17.408 51.2 51.2 0 44.186-11.469 51.2-25.6 51.2h-0.819c0.205 4.275 0.819 8.525 0.819 12.8 0 33.485 6.067 63.206 0 89.6 0 84.838-68.762 153.6-153.6 153.6h-51.2c-84.838 0-153.6-68.762-153.6-153.6-6.042-26.368 0-56.090 0-89.6 0-4.275 0.614-8.525 0.819-12.8h-0.819c-14.131 0-25.6-7.014-25.6-51.2 0-33.792 51.2-51.2 51.2-51.2 18.662-60.902 41.754-90.394 76.16-128h0.64v-0.666c28.826-31.309 57.549-50.534 76.8-50.534s47.974 19.226 76.8 50.534v0.666h0.64c34.406 37.606 57.498 67.098 76.16 128zM230.4 665.6c-0.051-0.026-0.102-0.077-0.154-0.102-0.077 1.638-0.077 3.354 0.154 0.102zM691.354 665.498c-0.051 0.026-0.102 0.077-0.154 0.102 0.23 3.251 0.23 1.536 0.154-0.102z" />
<glyph unicode="&#xe910;" glyph-name="file" d="M914.286 31.793v395.045c0 32.744-26.697 20.553-43.276 20.553h-54.248v407.625c0 38.814-30.939 55.613-69.486 55.613h-452.803c-36.23 0-87.235-15.067-87.235-55.613v-310.101h-118.053c-24.186 0-52.614-9.216-52.614-41.058v-472.064c0-10.679 16.506-47.64 56.466-47.64h777.947c51.493 0 43.301 39.326 43.301 47.64zM256 815.006l63.293-148.187h107.374v48.762h-75.581l-63.317 146.408c2.414-0.073 4.73-0.122 6.705-0.122h443.66l-80.043-146.286h-85.138v-48.762h113.542l81.506 145.993v-365.422h-225.134l-58.124 62.757c-15.262 23.064-32.597 34.767-51.541 34.767h-177.201v270.092zM871.010 32.914h-785.676v470.942c0 1.658 6.217 2.414 6.388 3.73l340.334-0.61c1.341-0.488 6.266-5.534 12.898-15.921l46.568-53.199 29.428-39.229h344.576v-353.231c0-0.171 8.046-12.483 5.486-12.483zM482.085 605.403c-8.021-5.925-13.58-14.994-13.58-25.722 0-17.969 14.58-32.524 32.549-32.524 17.944 0 32.524 14.555 32.524 32.524 0 10.728-5.559 19.797-13.58 25.722l25.649 170.691-1.609 0.244c0.024 0.536 0.171 1.024 0.171 1.56 0 23.845-19.285 43.154-43.154 43.154-23.845 0-43.154-19.31-43.154-43.154 0-0.536 0.146-1.024 0.146-1.56l-1.634-0.244 25.673-170.691zM515.17 737.304l-14.117-93.915-14.117 93.94c4.437-1.536 9.143-2.56 14.117-2.56 4.998 0 9.679 1 14.117 2.536z" />
<glyph unicode="&#xe911;" glyph-name="flights" d="M947.2 358.4h-256l-79.104-128h53.504c14.131 0 25.6-11.469 25.6-25.6s-11.469-25.6-25.6-25.6h-76.8c-2.637 0-5.043 0.768-7.424 1.51l-137.472-222.438 1.254-0.87c-13.517-20.608-36.506-34.202-62.643-34.202-41.6 0-75.315 34.381-75.315 76.8 0 4.48 0.486 8.858 1.203 13.133l-0.87 0.23 102.067 345.037h-192.077l-178.995-178.995-2.278 2.278c-3.251-1.51-6.81-2.483-10.65-2.483-14.131 0-25.6 11.469-25.6 25.6 0 3.84 0.973 7.398 2.483 10.65l-2.278 2.278 8.525 8.525-8.576 4.787 76.646 204.16-76.646 204.16 8.576 4.787-8.525 8.525 2.278 2.278c-1.51 3.251-2.483 6.81-2.483 10.65 0 14.131 11.469 25.6 25.6 25.6 3.84 0 7.398-0.973 10.65-2.483l2.278 2.278 178.995-178.995h192.077l-102.042 345.037 1.587 0.435c-0.742 4.275-1.946 8.422-1.946 12.928 0 42.419 34.381 76.8 76.8 76.8 26.65 0 50.099-13.594 63.872-34.227l-1.254-0.845 135.834-222.208c2.074 0.538 4.096 1.28 6.349 1.28h76.8c14.131 0 25.6-11.469 25.6-25.6s-11.469-25.6-25.6-25.6h-52.634l78.234-128h256c42.419 0 76.8-34.381 76.8-76.8s-34.381-76.8-76.8-76.8zM947.2 460.8h-281.6l-263.808 426.496c-4.582 4.992-10.47 8.704-17.792 8.704-14.131 0-25.6-11.469-25.6-25.6 0 0 0 0 0 0l0.384 0.077 3.046-11.571c0.461-0.819 0.742-1.69 1.254-2.458l-0.512-0.333 123.827-395.315h-281.6l-125.338 112.589 48.384-137.549 0.154-0.64-0.154-0.64-48.384-137.549 125.338 112.589h281.6l-124.902-395.315 0.512-0.358c-0.486-0.742-0.794-1.613-1.229-2.432l-2.995-11.571-0.384 0.102c0-0.026 0-0.026 0-0.026 0-14.131 11.238-25.6 25.114-25.6 7.168 0 12.954 3.712 17.459 8.704l265.626 426.496h281.6c14.131 0 25.6 11.469 25.6 25.6s-11.469 25.6-25.6 25.6z" />
<glyph unicode="&#xe912;" glyph-name="hotel" d="M950.76 751.299l-219.331 113.079v70.632h-48.762v-67.145l-233.033-116.565c-30.744-7.217-47.348-57.929-47.348-72.29v-182.857h-329.143c-26.892 0-60.952-9.679-60.952-36.571v-438.857c0-26.917 34.060-60.952 60.952-60.952h877.714c26.917 0 36.571 34.036 36.571 60.952v658.286c0 14.36-5.925 65.073-36.669 72.29zM792.381 374.248h-170.667v109.714c0 47.055 38.278 85.333 85.333 85.333s85.333-38.278 85.333-85.333v-109.714zM621.714 325.486h170.667v-316.952h-170.667v316.952zM841.143 8.533v475.429c0 73.947-60.148 134.095-134.095 134.095s-134.095-60.148-134.095-134.095v-475.429h-512v438.857h390.095v231.619c0 5.413 10.264 18.432 13.922 24.625l242.078 118.711 236.008-121.003c3.608-6.168 7.802-23.016 7.802-28.428l0.049-664.381h-109.763zM358.595 374.248h-205.19c-24.113 0-43.691-19.554-43.691-43.666v-205.239c0-24.113 19.554-43.666 43.691-43.666h205.214c24.113 0 43.691 19.554 43.691 43.666v205.239c-0.024 24.113-19.578 43.666-43.715 43.666zM158.476 325.486h73.143v-195.048h-73.143v195.048zM353.524 130.438h-73.143v195.048h73.143v-195.048z" />
<glyph unicode="&#xe913;" glyph-name="human" d="M876.69 211.017c-30.11 13.044-75.118 20.992-118.638 28.745-40.643 7.217-108.69 19.31-117.15 30.696-4.096 36.718-1.682 72.802-0.902 82.627 28.867 27.77 53.76 62.805 64.341 98.28l3.096 10.191c12.751 4.901 18.92 16.603 22.284 22.967 2.609 4.949 4.852 9.216 9.192 13.214 33.719 31.183 34.304 78.263 31.671 103.497-0.171 1.634-0.073 3.413-0.049 5.218 0.341 18.505-4.681 31.915-14.994 40.107l2.926 19.822c4.876 32.451 7.558 50.298 7.558 64.293 0 25.576-24.235 52.102-40.18 66.804-6.802 37.4-38.644 98.182-124.245 116.687-87.479 18.798-154.99 7.485-207.848-35.133-18.773-15.141-27.941-30.915-32.329-43.764-10.411-4.413-20.066-13.775-28.843-27.989-23.064-37.278-20.699-96.573-15.384-149.772 0.366-3.365 0.756-6.827 1.17-10.386-10.801-8.119-16.067-21.723-15.726-40.716 0.024-1.804 0.146-3.584-0.024-5.144-2.633-25.283-2.048-72.338 31.695-103.57 4.291-3.974 6.534-8.241 9.143-13.19 3.316-6.266 9.338-17.676 21.699-22.747l1.365-4.535c10.118-33.353 28.355-63.878 50.152-89.186 0.585-3.877 7.778-53.687 3.877-92.258-10.045-15.043-88.674-30.135-130.926-38.254-42.496-8.168-82.651-15.848-106.13-26.795-52.273-24.283-61.050-88.674-61.416-91.404-0.098-0.853 0.195-1.609 0.171-2.487-0.049-1.634 0.049-3.218 0.366-4.852 0.268-1.536 0.658-2.974 1.219-4.413 0.561-1.463 1.219-2.755 2.072-4.096 0.878-1.414 1.829-2.584 2.974-3.779 0.61-0.634 0.926-1.463 1.585-2.024 113.835-96.792 259.048-150.089 408.917-150.089 137.118 0 267.459 43.106 376.905 124.562 0.341 0.244 0.488 0.61 0.805 0.878 1.463 1.219 2.56 2.658 3.706 4.169 0.756 1 1.634 1.853 2.219 2.95 0.78 1.414 1.122 2.974 1.609 4.559 0.439 1.438 1 2.779 1.17 4.291 0.049 0.268 0.195 0.488 0.219 0.731 0.829 9.874 6.315 97.207-49.323 121.295zM857.332 166.254c14.653-6.315 20.382-37.059 20.456-61.416-93.233-66.682-202.167-103.546-317.026-107.666v132.023c3.56 2.072 7.022 4.462 10.094 7.534l77.434 77.434c27.185-9.216 62.293-15.506 101.23-22.43 40.765-7.217 82.92-14.726 107.813-25.478zM592.482 265.021c1.122-10.118 5.388-18.53 11.947-25.771l-68.047-68.047-76.288 76.288c4.437 6.12 7.387 12.898 8.241 20.626 1.975 17.652 2.072 36.303 1.414 53.126 23.552-15.287 47.25-24.162 67.17-24.162 15.116 0 33.67 6.607 52.931 17.725 0-14.97 0.658-32.207 2.633-49.786zM407.089 491.471c-3.048 10.069-11.508 16.75-21.285 17.286-3.486 6.583-14.287 15.823-23.942 24.747-18.822 17.408-23.235 49.615-21.87 62.708 0.366 3.486 9.752 15.945 13.019 20.090 4.096 5.193 17.018 11.849 16.116 18.408-1.292 9.484-2.511 19.115-3.413 27.77-2.511 24.869-9.118 90.917 8.338 119.174 1.414 2.267 2.609 3.998 3.633 5.315 4.754-1.024 28.453 39.4 46.616 54.028 41.423 33.353 94.379 41.033 166.961 25.429 81.018-17.506 86.967-80.262 87.162-82.725 0.414-6.632 3.486-12.824 8.558-17.14 14.458-12.239 29.062-29.989 30.11-35.962 0-10.338-2.804-27.916-7.192-57.051l-6.046-38.766c-0.951-6.534 0.878-13.288 4.901-18.505 2.901-3.755 0 0 10.484-8.192 0-0.268 0-0.536 0-0.805 0-3.828 1.195-7.631 1.56-11.142 1.365-13.044 3.755-45.275-14.994-62.659-9.63-8.875-14.848-18.091-18.383-24.649-9.85-0.61-18.773-7.217-21.821-17.189l-8.046-26.429c-18.627-62.61-96.841-119.418-120.661-119.418-30.086 0-101.352 51.785-123.66 125.44l-6.144 20.236zM204.069 166.522c18.018 8.387 57.027 15.848 94.744 23.089 46.324 8.875 89.21 17.189 120.369 29.842l82.749-82.773c3.048-3.048 6.51-5.437 10.069-7.509v-131.633c-123.636 5.827-242.298 50.688-338.408 128.341 4.023 13.068 12.751 32.402 30.476 40.643z" />
<glyph unicode="&#xe914;" glyph-name="huochecheci" d="M358.118 665.6c28.262 0 51.174-22.912 51.174-51.2v-51.2c0-28.288-22.912-51.2-51.174-51.2h-76.749c-28.237 0-51.149 22.912-51.149 51.2v51.2c0 28.288 22.912 51.2 51.149 51.2h76.749zM281.37 563.2h76.749v51.2h-76.749v-51.2zM1023.206 358.4c-123.315-88.218-272.998-147.405-434.867-152.576l0.461-1.024h-588.8v51.2h562.765c160.589 0 287.872 41.165 409.267 128v0l-0.486-1.152c-26.726 46.387-58.342 89.523-93.798 129.152h-366.157c-28.237 0-51.149 22.912-51.149 51.2v51.2c0 28.288 22.912 51.2 51.149 51.2h177.434c-112.461 64.998-242.79 102.4-382.054 102.4v0h-306.97v51.2h306.97c302.49 0 574.541-165.376 716.237-409.6 2.662 2.048-2.637-2.099 0 0v-51.2zM766.208 614.4h-254.618v-51.2h315.802c-19.482 18.099-39.885 35.174-61.184 51.2zM51.149 665.6h76.749c28.262 0 51.174-22.912 51.174-51.2v-51.2c0-28.288-22.912-51.2-51.174-51.2h-76.749c-28.237 0-51.149 22.912-51.149 51.2v51.2c0 28.288 22.912 51.2 51.149 51.2zM51.149 563.2h76.749v51.2h-76.749v-51.2zM690.662 51.2h-690.662v51.2h690.662v-51.2z" />
<glyph unicode="&#xe915;" glyph-name="huzhao" d="M972.8 25.6h-51.2v-51.2c0-28.288-22.912-51.2-51.2-51.2h-819.2c-28.288 0-51.2 22.912-51.2 51.2v819.2c0 28.288 22.912 51.2 51.2 51.2h51.2v51.2c0 28.288 22.912 51.2 51.2 51.2h819.2c28.288 0 51.2-22.912 51.2-51.2v-819.2c0-28.288-22.912-51.2-51.2-51.2zM51.2-25.6h819.2v819.2h-819.2v-819.2zM972.8 896h-819.2v-51.2h716.8c28.288 0 51.2-22.912 51.2-51.2v-716.8h51.2v819.2zM460.8 76.8c-169.651 0-307.2 137.549-307.2 307.2s137.549 307.2 307.2 307.2c169.651 0 307.2-137.549 307.2-307.2s-137.549-307.2-307.2-307.2zM460.8 128c53.094 0 96.742 101.043 101.888 230.4h-203.776c5.146-129.357 48.794-230.4 101.888-230.4zM362.778 147.533c-30.848 51.2-51.354 126.208-54.861 210.867h-101.171c9.549-95.411 70.886-175.539 156.032-210.867zM206.746 409.6h101.171c3.507 84.659 24.013 159.667 54.861 210.867-85.146-35.328-146.483-115.456-156.032-210.867zM460.8 640c-53.094 0-96.742-101.043-101.888-230.4h203.776c-5.146 129.357-48.794 230.4-101.888 230.4zM558.822 620.467c30.848-51.2 51.354-126.208 54.861-210.867h101.171c-9.549 95.411-70.886 175.539-156.032 210.867zM613.683 358.4c-3.507-84.659-24.013-159.667-54.861-210.867 85.146 35.328 146.483 115.456 156.032 210.867h-101.171z" />
<glyph unicode="&#xe916;" glyph-name="IP" d="M426.959 604.062h-47.616v-386.999h47.616v-54.004h-159.11v54.004h47.616v386.999h-47.616v54.004h159.11v-54.004zM571.709 348.111v-185.051h-63.902v495.006h140.629c53.443 0 94.964-12.898 124.44-38.668s44.251-62.61 44.251-110.568c0-48.567-17.262-87.942-51.761-118.053-34.523-30.184-77.702-44.373-129.438-42.667h-64.219zM571.709 601.819v-197.486h59.148c38.961 0 68.584 8.753 88.82 26.356 20.236 17.579 30.379 42.764 30.379 75.581 0 63.683-37.717 95.549-113.152 95.549h-65.195z" />
<glyph unicode="&#xe917;" glyph-name="jizhan" d="M793.677 696.858c-43.776 116.275-155.699 199.142-287.283 199.142-131.61 0-243.558-82.918-287.309-199.219l-39.526 38.579c56.064 124.774 181.171 211.84 326.835 211.84 145.382 0 270.285-86.707 326.502-211.123l-39.219-39.219zM506.394 742.4c-69.837 0-129.664-40.346-159.232-98.637l-43.494 28.979c38.989 71.962 115.149 120.858 202.726 120.858 87.603 0 163.763-48.896 202.726-120.858l-43.469-28.979c-29.568 58.291-89.421 98.637-159.258 98.637zM429.594 563.2c0 42.419 34.381 76.8 76.8 76.8s76.8-34.381 76.8-76.8c0-15.411-4.634-29.722-12.467-41.754l217.037-584.243-48.589-14.029-114.125 307.226h-237.312l-114.125-307.226-48.589 14.029 217.037 584.243c-7.808 12.032-12.467 26.342-12.467 41.754zM484.198 490.035l-39.398-106.035h123.187l-39.398 106.035c-7.066-2.125-14.413-3.635-22.195-3.635-7.757 0-15.13 1.51-22.195 3.635zM425.779 332.8l-19.021-51.2h199.27l-19.021 51.2h-161.229z" />
<glyph unicode="&#xe918;" glyph-name="mac" d="M332.946 288.524v219.867c0 18.139 1.097 39.936 3.243 65.365h-1.097c-3.706-15.994-6.997-27.136-9.85-33.426l-109.47-251.806h-23.82l-109.275 249.88c-2.56 5.705-5.851 17.506-9.85 35.352h-1.292c1.438-15.433 2.146-37.864 2.146-67.291v-217.941h-40.936v331.947h58.051l97.963-227.547c7.436-17.432 12.337-30.988 14.75-40.716h1.536c7.436 20.431 12.629 34.28 15.628 41.57l99.669 226.694h55.296v-331.947h-42.691zM722.334 288.524h-47.372l-33.865 90.868h-138.191l-31.963-90.868h-47.323l126.44 331.947h45.861l126.415-331.947zM627.81 416.914l-50.152 137.996c-1.56 4.437-3.291 12.142-5.144 23.138h-1.048c-1.56-9.996-3.389-17.725-5.388-23.138l-49.713-137.996h111.445zM991.232 302.251c-24.43-12.849-55.052-19.285-91.916-19.285-47.567 0-85.577 15.141-114.005 45.324-28.428 30.208-42.667 70.193-42.667 119.881 0 53.419 15.994 96.427 48.006 129s72.655 48.859 121.954 48.859c31.72 0 57.905-4.51 78.629-13.507v-44.788c-23.723 13.141-49.762 19.724-78.19 19.724-37.010 0-67.145-12.312-90.429-36.962s-34.962-57.905-34.962-99.742c0-39.692 10.85-71.241 32.573-94.598 21.723-23.333 50.152-35.060 85.285-35.060 32.866 0 61.44 7.436 85.723 22.284v-41.131z" />
<glyph unicode="&#xe919;" glyph-name="micro_blog_account" d="M1022.976 542.72c0.358-1.715 1.024-3.302 1.024-5.12 0-14.131-11.469-25.6-25.6-25.6s-25.6 11.469-25.6 25.6h-1.51c0.947 8.422 1.51 16.947 1.51 25.6 0 127.232-103.142 230.4-230.4 230.4-8.653 0-17.178-0.563-25.6-1.51v1.51c0 0 0 0 0 0-14.131 0-25.6 11.469-25.6 25.6s11.469 25.6 25.6 25.6c1.818 0 3.405-0.666 5.12-1.024 6.784 0.512 13.568 1.024 20.48 1.024 155.52 0 281.6-126.080 281.6-281.6 0-6.912-0.512-13.696-1.024-20.48zM870.4 537.6c-14.131 0-25.6 11.469-25.6 25.6 2.867 8.038 0 16.563 0 25.6 0 42.419-34.381 76.8-76.8 76.8-9.011 0-17.562 2.867-25.6 0-14.131 0-25.6 11.469-25.6 25.6s11.469 25.6 25.6 25.6c3.021 0 5.837-0.768 8.525-1.715 5.632 0.768 11.238 1.715 17.075 1.715 70.682 0 128-57.318 128-128 0-5.837-0.947-11.443-1.715-17.075 0.947-2.688 1.715-5.504 1.715-8.525 0-14.131-11.469-25.6-25.6-25.6zM768 537.6c0-71.834-28.723-76.646-25.6-76.8 15.309-0.794 153.6-6.861 153.6-128 0-160.23-215.731-307.2-460.8-307.2s-430.413 95.821-435.2 256c-0.768 25.779 17.075 128.819 51.2 179.2 235.213 347.264 391.142 281.6 358.4 281.6 56.55 0 102.4-45.85 102.4-102.4 0-29.363-5.811-58.138-25.6-76.8 11.213-37.146 25.6-25.6 25.6-25.6 51.072 60.698 108.467 84.71 153.6 76.8 46.413-8.141 102.4-29.67 102.4-76.8zM409.6 486.4c-169.651 0-307.2-117.299-307.2-230.4s137.549-179.2 307.2-179.2c169.651 0 307.2 108.749 307.2 221.875 0 113.101-137.549 187.725-307.2 187.725zM384 128c-94.259 0-179.2 17.562-179.2 102.4s84.941 179.2 179.2 179.2c94.259 0 179.2-43.162 179.2-128s-84.941-153.6-179.2-153.6zM324.275 298.675c-28.288 0-51.2-22.938-51.2-51.2 0-28.288 22.912-51.2 51.2-51.2 28.262 0 51.2 22.912 51.2 51.2 0 28.262-22.938 51.2-51.2 51.2z" />
<glyph unicode="&#xe91a;" glyph-name="organization" d="M979.7 338.676c0 136.68-70.607 246.174-173.47 283.916 34.182 26.868 56.418 69.388 56.418 117.346 0 81.091-63.317 147.066-141.141 147.066-77.8 0-141.093-65.975-141.093-147.066 0-50.347 24.43-94.866 61.562-121.368-18.066-8.070-35.84-18.846-53.443-32.427-22.382 15.555-49.225 24.649-78.068 24.649-26.405 0-51.029-7.729-72.192-20.919-17.286 12.654-35.401 22.821-54.077 30.403 35.864 26.697 59.392 70.315 59.392 119.662 0 81.091-63.293 147.066-141.068 147.066-77.824 0-141.166-65.975-141.166-147.066 0-48.372 22.65-91.258 57.393-118.077-103.497-38.327-174.397-147.285-174.397-283.16v-24.381h335.067c-75.947-52.248-127.122-148.041-127.122-257.707v-24.381h516.413v24.381c0 109.666-51.176 205.483-127.098 257.707h338.115v24.357zM721.506 838.217c50.932 0 92.379-44.105 92.379-98.304s-41.448-98.28-92.379-98.28c-50.907 0-92.331 44.105-92.331 98.28 0 54.199 41.423 98.304 92.331 98.304zM602.795 463.75c0-54.223-41.423-98.304-92.331-98.304-50.932 0-92.379 44.105-92.379 98.304 0 54.174 41.448 98.255 92.379 98.255 50.883 0 92.331-44.081 92.331-98.255zM302.494 838.217c50.907 0 92.306-44.105 92.306-98.304s-41.399-98.28-92.306-98.28c-50.956 0-92.404 44.105-92.404 98.28 0 54.199 41.448 98.304 92.404 98.304zM302.080 588.069c33.914 0 67.779-10.923 98.987-31.573-19.822-25.332-31.744-57.588-31.744-92.745 0-38.985 14.726-74.362 38.546-100.693h-313.905c9.63 129.877 95.866 225.012 208.116 225.012zM431.372 341.992c0.073-0.049 0.146-0.122 0.219-0.171-0.073-0.024-0.146-0.073-0.219-0.098v0.268zM718.921 80.969h-416.914c10.264 126.952 99.864 226.523 208.506 226.523 108.593 0 198.144-99.572 208.408-226.523zM613.035 363.057c23.82 26.331 38.522 61.708 38.522 100.693 0 32.866-10.533 63.147-28.062 87.65 33.841 24.869 66.609 36.669 102.424 36.669 112.006 0 195.048-93.233 204.19-225.012h-317.074z" />
<glyph unicode="&#xe91b;" glyph-name="phone" d="M962.097 810.886c-30.184 37.425-89.819 55.491-152.99 74.654l-17.091 5.242c-109.47 33.792-247.93 46.543-385.902 35.45-50.274-4.047-122.417-18.188-183.808-36.035-55.564-16.14-128.414-42.813-160.134-78.19-2.926-3.291-5.9-6.9-8.728-10.679-23.43-31.646-39.643-77.458-43.349-122.587-4.632-56.71 10.581-105.228 42.837-136.582 10.679-10.411 24.771-16.165 39.668-16.165h0.512c68.291 0.512 167.985 18.895 196.827 24.503 13.97 2.682 26.38 10.484 34.962 21.992 20.407 27.55 24.771 57.271 27.989 79.214 1.707 11.41 3.511 23.186 6.656 27.453 7.68 8.363 55.954 21.65 152.674 21.65 24.283 0 48.811-0.878 72.899-2.56 73.509-5.144 79.287-23.016 103.717-98.353l2.633-7.973c6.632-20.602 24.064-35.426 45.446-38.693 9.874-1.536 19.651-3.048 30.647-4.852 51.298-8.216 104.302-16.725 166.619-16.725h2.779c17.871 0.024 34.914 8.631 45.714 23.186 1.536 2.146 2.974 4.389 4.315 6.851 39.497 73.582 28.526 183.052-24.893 249.198zM943.372 583.729c-1.487-2.024-4.023-3.316-6.534-3.316h-2.658c-58.417 0-109.495 8.192-159.939 16.262-9.972 1.634-19.87 3.194-29.915 4.73-3.121 0.488-5.534 2.536-6.534 5.608l-2.633 8.021c-25.161 77.58-40.326 124.392-146.651 131.852-25.21 1.78-50.907 2.682-76.337 2.682-106.91 0-171.374-13.848-191.683-41.179-10.533-14.214-13.117-31.281-15.921-49.859-2.706-18.408-5.754-39.278-18.871-56.954-1.268-1.707-2.974-2.804-5.022-3.194-27.892-5.413-123.855-23.138-188.026-23.625l-0.073-24.381v24.381c-2.146 0-4.072 0.805-5.632 2.341-21.675 21.041-31.695 55.71-28.233 97.646 2.974 36.45 15.677 72.899 33.938 97.548 1.95 2.633 4.023 5.096 5.925 7.29 18.115 20.212 69.486 44.056 137.338 63.805 58.49 16.994 126.854 30.452 174.104 34.255 31.403 2.511 63.147 3.779 94.354 3.779 99.84 0 194.316-12.873 273.189-37.205l17.432-5.339c53.321-16.165 108.398-32.89 129.17-58.612 40.619-50.322 49.737-139.849 19.212-196.535zM670.476 528.408v29.135c0 30.257-6.046 36.133-36.571 36.133h-48.762c-30.525 0-60.952-5.876-60.952-36.133v-37.010h-48.762v37.010c0 30.257-6.046 36.133-36.571 36.133h-48.762c-30.525 0-60.952-5.876-60.952-36.133v-29.111l-236.837-240.884-31.354-55.954v-159.817c0-28.16 36.303-63.269 65.95-63.269h759.515c26.917 0 52.248 31.622 52.248 63.269v159.817l-27.355 50.444-240.835 246.37zM886.418 57.295h-759.515c-3.316 0-17.189 14.092-17.189 14.507v147.456l19.797 36.571 248.393 252.611v36.474h48.762v-73.143h146.286v73.143h48.762v-36.45l248.393-252.684 19.822-36.547v-143.994c-0.024-2.56 1.658-17.944-3.511-17.944zM512 445.854c-99.986 0-181.346-81.335-181.346-181.346s81.359-181.346 181.346-181.346 181.346 81.335 181.346 181.346-81.359 181.346-181.346 181.346zM512 131.95c-73.094 0-132.584 59.465-132.584 132.584s59.465 132.584 132.584 132.584 132.584-59.465 132.584-132.584-59.49-132.584-132.584-132.584zM512 361.545c-53.467 0-97.012-43.52-97.012-97.012s43.52-97.012 97.012-97.012 97.012 43.52 97.012 97.012-43.544 97.012-97.012 97.012zM512 216.283c-26.6 0-48.25 21.65-48.25 48.25s21.65 48.25 48.25 48.25 48.25-21.65 48.25-48.25-21.65-48.25-48.25-48.25z" />
<glyph unicode="&#xe91c;" glyph-name="picture" d="M950.199 901.071h-876.398c-27.258 0-49.42-22.162-49.42-49.42v-876.398c0-27.234 22.162-49.42 49.42-49.42h876.398c27.258 0 49.42 22.187 49.42 49.42v876.398c0 27.258-22.162 49.42-49.42 49.42zM950.857 851.651v-301.202c-197.778-57.027-363.227-144.408-491.618-258.999-119.052 69.193-248.174 114.956-384.634 135.558l-1.122-7.485 0.317 432.762 877.056-0.634zM73.143-24.747l0.293 402.481c123.368-19.383 240.494-60.050 348.965-121.125-82.578-81.774-147.675-176.006-194.024-281.478l-155.234 0.122zM950.199-25.429l-668.258 0.512c116.565 248.027 346.648 428.471 668.916 524.507v-524.337c0-0.341-0.293-0.683-0.658-0.683zM429.763 659.895c0-48.906-40.181-88.552-89.746-88.552s-89.746 39.646-89.746 88.552c0 48.906 40.181 88.552 89.746 88.552s89.746-39.646 89.746-88.552z" />
<glyph unicode="&#xe91d;" glyph-name="product" d="M955.099 422.205l-190.123 100.425c-22.528 11.849-57.539 12.8-82.31 3.048v160.817c0 30.281-14.921 70.729-47.616 87.942l-230.107 122.539c-29.867 15.726-73.192 15.726-103.229-0.073l-228.157-122.417c-33.792-17.798-49.176-58.1-49.176-87.991v-258.755c0-30.72 17.042-70.802 49.566-87.942l230.766-122.514c14.897-7.826 33.134-11.776 51.419-11.776 18.383 0 36.815 3.974 51.907 11.922l30.818 16.701v-100.035c0-29.501 19.822-62.171 46.153-76.020l190.61-100.401c12.386-6.51 28.233-10.094 44.666-10.094 16.482 0 32.329 3.584 44.715 10.118l190.050 100.376c25.819 13.605 44.568 45.568 44.568 76.020v212.114c0 30.476-18.749 62.415-44.52 75.995zM341.333 255.781c-5.12 1-9.874 2.511-13.824 4.584l-230.741 122.514c-12.824 6.729-23.625 27.282-23.625 44.837v258.779c0 3.121 0.683 6.29 1.268 9.46l266.923-134.022v-306.152zM104.155 735.573l220.453 118.272c15.384 8.070 42.301 8.070 57.515 0.049l230.107-122.539c1.292-0.658 2.243-1.999 3.438-2.901l-242.152-128.122-269.361 135.241zM438.857 346.21v-56.588l-48.762-26.478v290.792l243.81 129v-182.296l-148.894-78.434c-26.331-13.824-46.153-46.519-46.153-75.995zM707.048-1.975c-3.267 0.683-6.363 1.536-8.704 2.779l-190.61 100.401c-10.362 5.437-20.114 21.455-20.114 32.89v212.114c0 1.219 0.512 2.584 0.707 3.901l218.722-109.812v-242.274zM523.118 387.194l175.226 92.282c5.339 2.804 13.556 4.486 21.943 4.486 8.436 0 16.652-1.682 21.943-4.462l184.832-97.621-191.488-101.327-212.456 106.642zM950.857 134.095c0-12.093-8.802-27.794-18.554-32.914l-176.494-93.184v228.059l195.048 103.205v-205.166z" />
<glyph unicode="&#xe91e;" glyph-name="public_security_intelligence" d="M896 460.8v51.2h128v-51.2h-128zM768 727.757l91.648 91.648 36.659-36.659-91.648-91.648-36.659 36.659zM844.8 460.8v-25.6c0 0 0 0 0 0v0-460.8c0-28.288-22.912-51.2-51.2-51.2h-563.2c-28.288 0-51.2 22.912-51.2 51.2v460.8c0 183.808 148.992 332.8 332.8 332.8 169.523 0 309.146-126.848 329.856-290.765 1.766-5.171 2.944-10.65 2.944-16.435zM793.6 435.2c0 155.52-126.080 281.6-281.6 281.6s-281.6-126.080-281.6-281.6v-460.8h563.2v460.8zM512 361.242c38.246 74.266 115.507 125.158 204.8 125.158 8.653 0 17.178-0.563 25.6-1.51v-51.738c-8.371 1.203-16.896 2.048-25.6 2.048-98.97 0-179.2-80.23-179.2-179.2s80.23-179.2 179.2-179.2c8.704 0 17.229 0.845 25.6 2.048v-51.738c-8.422-0.947-16.947-1.51-25.6-1.51-89.293 0-166.554 50.893-204.8 125.158-38.246-74.266-115.507-125.158-204.8-125.158-8.653 0-17.178 0.563-25.6 1.51v51.738c8.371-1.203 16.896-2.048 25.6-2.048 98.97 0 179.2 80.23 179.2 179.2s-80.23 179.2-179.2 179.2c-8.704 0-17.229-0.845-25.6-2.048v51.738c8.422 0.947 16.947 1.51 25.6 1.51 89.293 0 166.554-50.893 204.8-125.158zM486.4 947.2h51.2v-128h-51.2v128zM127.693 782.746l36.659 36.659 91.648-91.648-36.659-36.659-91.648 91.648zM128 460.8h-128v51.2h128v-51.2z" />
<glyph unicode="&#xe91f;" glyph-name="qiankezhongdianren" d="M896 76.8l51.2-153.6-128 102.4-128-102.4 51.2 153.6-102.4 76.8h128l51.891 128 50.509-128h128l-102.4-76.8zM537.6 281.6v54.707c-25.805-18.509-52.173-29.107-76.8-29.107s-50.995 10.598-76.8 29.107v-54.707c0-33.382-21.427-66.227-51.2-76.8-105.856-13.747-190.234-38.502-230.4-76.8-5.683 0-10.65-2.202-14.899-5.35-5.274-7.987-9.344-11.776-10.701-20.25 0.026-0.205 1.075-4.838 1.101-5.043 2.406-0.666 102.118-122.957 382.899-122.957 83.789 0 151.168 10.931 204.8 26.24v-51.84c-54.861-12.672-121.472-25.6-204.8-25.6-348.723 0-426.778 145.178-428.544 147.61 0.051 0.077 0.128 0.179 0.154 0.282-4.301 9.574-6.81 20.122-6.81 31.309 0 29.030 16.307 54.016 40.090 67.072 47.514 45.67 134.323 68.634 241.51 86.528 14.131 0 25.6 11.469 25.6 25.6v103.296c-29.773 35.302-58.368 76.723-76.8 127.104-31.053 9.83-51.2 42.47-51.2 76.8 0 23.066 1.51 65.613 25.446 76.698 0.051-1.562 0.154-3.021 0.154 0.102 0 28.006-3.277 53.402 0 76.8 0 113.101 91.699 204.8 204.8 204.8h51.2c113.101 0 204.8-91.699 204.8-204.8 3.328-23.398 0-48.819 0-76.8 0-3.123 0.102-1.664 0.154-0.102 23.91-11.085 25.446-53.632 25.446-76.698 0-34.33-20.147-66.97-51.2-76.8-18.432-50.381-47.002-91.802-76.8-127.104v-103.296c0-14.131 11.469-25.6 25.6-25.6 47.283-7.885 90.266-14.208 128-25.6v-51.2c-41.882 15.104-94.157 17.894-153.6 25.6-29.773 10.573-51.2 43.418-51.2 76.8zM614.4 537.6c0 0 51.2 17.408 51.2 51.2 0 44.186-11.469 51.2-25.6 51.2h-0.819c0.205 4.275 0.819 8.525 0.819 12.8 0 33.51 6.067 63.206 0 89.6 0 84.838-68.762 153.6-153.6 153.6h-51.2c-84.838 0-153.6-68.762-153.6-153.6-6.042-26.368 0-56.090 0-89.6 0-4.275 0.614-8.525 0.819-12.8h-0.819c-14.131 0-25.6-7.014-25.6-51.2 0-33.792 51.2-51.2 51.2-51.2 18.662-60.902 41.754-90.394 76.16-128h0.64v-0.666c28.826-31.309 57.549-50.534 76.8-50.534s47.974 19.226 76.8 50.534v0.666h0.64c34.406 37.606 57.498 67.098 76.16 128zM230.4 665.6c-0.051-0.026-0.102-0.077-0.154-0.102-0.077 1.638-0.077 3.354 0.154 0.102zM691.354 665.498c-0.051 0.026-0.102 0.077-0.154 0.102 0.23 3.251 0.23 1.536 0.154-0.102z" />
<glyph unicode="&#xe920;" glyph-name="qq_and_wechat_group_number" d="M911.61 97.879v-139.664l0.1-0.125-0.1-0.1v-34.791h-49.951l-79.847 94.807c-37.164-12.613-77.474-19.881-119.958-19.881-179.325 0-324.683 123.005-324.683 274.732s145.358 274.732 324.683 274.732c179.325 0 324.683-123.005 324.683-274.732 0-66.61-28.297-127.451-74.927-174.979zM661.854 497.639c-151.727 0-274.732-100.627-274.732-224.78s123.005-224.78 274.732-224.78c47.978 0 93.034 10.115 132.271 27.773l1.299-3.921 1.224 1.224 65.012-64.987v114.838c39.387 38.912 74.927 95.382 74.927 149.854 0 124.154-123.005 224.78-274.732 224.78zM786.732 272.859c-27.598 0-49.951 22.353-49.951 49.951s22.353 49.951 49.951 49.951c27.598 0 49.951-22.353 49.951-49.951s-22.353-49.951-49.951-49.951zM536.976 272.859c-27.598 0-49.951 22.353-49.951 49.951s22.353 49.951 49.951 49.951c27.598 0 49.951-22.353 49.951-49.951s-22.353-49.951-49.951-49.951zM834.535 533.254c-2.797 16.134-8.142 34.991-15.285 40.81 16.084 7.168 31.045 14.96 45.181 23.152 13.687-16.159 22.203-61.39 22.203-83.718 0-3.596-0.4-7.068-0.849-10.565-15.909 11.389-33.118 21.479-51.25 30.32zM782.436 553.884c-26.999 8.517-55.371 14.586-85.017 17.133 42.783 13.637 80.571 32.568 114.114 55.845-1.948 163.041-110.517 270.386-274.557 270.386-163.49 0-296.186-106.671-299.408-268.788 73.753-47.778 174.13-78.099 285.821-80.421-30.121-11.139-58.068-25.775-83.094-43.358-81.396 11.639-155.173 37.438-215.44 73.653-7.742-14.486-12.563-43.108-12.563-55.721 0-18.432 10.115-34.366 24.976-43.033v-13.662c35.316-19.431 75.726-35.166 119.558-46.754-8.891-13.612-16.359-27.923-22.728-42.708-57.519 16.659-109.468 39.986-153.051 68.833 0.599-0.524 0.999-1.224 1.648-1.648-12.513-8.242-24.801-17.558-36.19-28.972-62.739-63.013-78.398-124.478-34.941-168.086 11.938-12.013 27.223-19.231 44.257-22.478 17.733 2.972 31.494 17.683 31.494 36.265 0 4.421-1.099 8.542-2.523 12.488h51.225c0.574-4.121 1.249-8.217 1.249-12.488 0-12.688-2.822-24.651-7.692-35.54l45.056-60.066c-51.425-13.861-87.315-44.007-87.315-79.223 0-48.278 67.084-87.415 149.854-87.415 44.357 0 90.512 11.514 124.154 29.446 15.76-9.491 32.518-17.733 50.026-24.926-43.557-32.968-109.293-54.472-174.18-54.472-110.342 0-199.805 61.49-199.805 137.366 0 33.717 22.653 64.537 57.469 88.439-12.113-1.274-23.977-1.174-35.515-0.075-3.147-0.35-6.219-0.949-9.466-0.949-4.271 0-8.367 0.674-12.488 1.249v3.871c-23.127 5.719-44.282 16.334-61.215 33.342-62.739 62.988-47.104 155.898 34.966 238.267 9.441 9.491 40.985 40.261 51.225 47.953 4.446-3.771 6.419-10.14 7.742-17.233l1.399 1.399c-5.669 12.463-9.141 26.174-9.141 40.81 0 23.602 8.517 69.982 22.203 87.065 1.099-0.674 2.398-1.224 3.522-1.898-0.15 2.797-0.3 5.595-0.425 8.417v0c-0.050 2.123-0.325 4.196-0.325 6.319 0 14.061 1.074 27.673 2.672 41.035 0.025 0.25 0.025 0.475 0.050 0.724 0.025-0.025 0.050-0.025 0.050-0.050 20.855 170.034 168.061 282.974 346.886 282.974 193.111 0 324.683-131.572 324.683-324.683 0-6.718-0.624-13.287-0.999-19.906-24.801-18.432-50.8-34.616-78.224-48.727z" />
<glyph unicode="&#xe921;" glyph-name="qq_and_wechat_number" d="M958.746 192.922c-17.382-17.408-38.963-28.723-62.746-34.56v-3.482c-4.224-0.589-8.422-1.28-12.8-1.28-3.123 0-6.067 0.614-9.114 0.922-0.154-0.026-0.282-0.051-0.41-0.077 29.875-24.474 47.923-55.987 47.923-90.445 0-77.773-91.699-140.8-204.8-140.8-81.152 0-138.598 32.538-179.2 79.59-40.602-47.053-123.648-79.59-204.8-79.59-113.101 0-204.8 63.027-204.8 140.8 0 34.56 23.219 66.15 58.906 90.65-12.416-1.306-24.576-1.203-36.403-0.077-3.226-0.358-6.374-0.973-9.702-0.973-4.378 0-8.576 0.691-12.8 1.28v3.968c-23.706 5.862-45.389 16.742-62.746 34.176-64.307 64.563-48.282 159.795 35.84 244.224 9.677 9.728 42.010 41.267 52.506 49.152 4.557-3.866 6.579-10.394 7.936-17.664l1.434 1.434c-5.811 12.774-9.37 26.829-9.37 41.83 0 24.192 8.73 71.731 22.758 89.242 1.126-0.691 2.458-1.254 3.61-1.946-0.333 5.018-0.768 10.010-0.768 15.104 0 14.413 1.101 28.365 2.739 42.061 0.026 0.256 0.026 0.486 0.051 0.742 0.026-0.026 0.051-0.026 0.051-0.051 21.376 174.285 172.262 290.048 355.558 290.048 197.939 0 332.8-134.861 332.8-332.8 0-1.766-0.23-3.456-0.256-5.222-0.205-5.069-0.486-10.138-0.768-15.181-88.883-65.997-190.285-107.597-331.776-107.597-122.726 0-234.445 31.36-319.923 82.714-7.936-14.848-12.877-44.186-12.877-57.114 0-18.893 10.368-35.226 25.6-44.109v-14.003c78.797-43.341 181.504-69.888 294.4-69.888 119.014 0 212.762 29.389 294.451 77.005 15.206 8.397 25.549 23.808 25.549 41.651 0 14.643-7.014 53.197-17.869 62.080 16.486 7.347 28.979 15.667 43.469 24.064 14.029-16.563 25.6-63.258 25.6-86.144 0-18.995-6.067-36.48-16.102-51.354l3.917-3.917c3.635 4.941 7.398 9.702 12.186 13.414 6.093-5.146 21.146-18.381 26.906-24.192 84.122-84.275 100.147-179.226 35.84-243.686zM537.6 537.6c118.861 0 209.357 31.258 281.421 81.254-1.997 167.117-113.28 277.146-281.421 277.146-167.578 0-303.59-109.338-306.893-275.507 78.694-50.97 186.752-82.893 306.893-82.893zM691.2 350.336c-46.336-11.162-96.87-17.536-153.6-17.536-8.653 0-17.050 0.589-25.6 0.845v-103.245c0-28.288 48.512-51.2 76.8-51.2h25.6c28.288 0 76.8 22.912 76.8 51.2v119.936zM886.63 400.794c-8.064 8.064-16.538 15.386-25.216 21.914-36.608-23.296-75.981-42.573-119.014-57.446v-134.861c0-56.55-71.45-102.4-128-102.4h-25.6c-56.55 0-128 45.85-128 102.4v106.598c-112.026 11.059-212.147 45.517-288.026 95.744 0.614-0.538 1.024-1.254 1.69-1.69-12.826-8.448-25.421-17.997-37.094-29.696-64.307-64.589-80.358-127.59-35.814-172.288 12.237-12.314 27.904-19.712 45.363-23.040 18.176 3.046 32.282 18.125 32.282 37.171 0 4.531-1.126 8.755-2.586 12.8h52.506c0.589-4.224 1.28-8.422 1.28-12.8 0-13.005-2.893-25.267-7.885-36.429l46.182-61.568c-52.71-14.208-89.498-45.107-89.498-81.203 0-49.485 68.762-89.6 153.6-89.6 77.235 0 160.819 33.485 175.36 76.8h58.035c14.49-43.366 73.293-76.8 150.605-76.8 84.838 0 153.6 40.115 153.6 89.6 0 36.966-38.426 68.685-93.21 82.381l27.366 54.733c-6.758 12.595-10.957 26.778-10.957 42.086 0 4.378 0.691 8.576 1.28 12.8h52.506c-1.459-4.045-2.586-8.269-2.586-12.8 0-19.072 14.131-34.176 32.358-37.171 17.434 3.251 33.075 10.624 45.286 22.886 44.544 44.621 28.493 107.418-35.814 171.878z" />
<glyph unicode="&#xe922;" glyph-name="small-car" d="M889.198 601.234c-1.634 0.658-6.68 2.609-22.528 2.609h-79.604l-142.434 172.008c-7.582 9.143-18.749 14.409-30.598 14.409h-283.794c-11.313 0-22.138-4.876-29.672-13.336l-154.088-172.617-35.523-0.463c-39.863 0-72.29-32.427-72.29-72.29v-168.399c0-21.894 17.822-39.79 39.79-39.79h81.189c1.097-72.972 60.733-131.998 133.925-131.998 73.24 0 132.852 59.026 133.949 131.998h196.364c0.561 0 1.073 0.219 1.609 0.244 1-73.094 60.684-132.242 133.998-132.242 73.216 0 132.779 59.026 133.9 131.998h43.593c18.481 0 34.865 13.019 38.961 30.988 44.032 193.707-81.408 244.809-86.747 246.882zM293.595 238.86c-47.738 0-86.528 38.839-86.528 86.552 0 47.738 38.814 86.552 86.528 86.552s86.552-38.814 86.552-86.552c0.024-47.714-38.814-86.552-86.552-86.552zM759.564 238.86c-47.762 0-86.552 38.839-86.552 86.552 0 47.738 38.79 86.552 86.552 86.552 47.689 0 86.504-38.814 86.504-86.552 0-47.714-38.814-86.552-86.504-86.552zM930.987 370.907h-34.621c-9.752 29.038-43.739 97.353-146.749 97.353-75.337 0-115.346-64.805-130.682-97.353h-189.026c-10.386 29.477-44.715 99.621-135.948 99.621s-124.66-70.071-134.705-99.621h-73.021v160.646c0 13.702 11.118 24.795 24.771 24.795h54.223l168.546 186.344h276.675l142.434-171.983c7.582-9.118 18.749-14.36 30.598-14.36h83.237c1 0 4.657-0.073 7.412-0.293 13.653-6.363 85.894-46.933 56.856-185.149z" />
<glyph unicode="&#xe923;" glyph-name="taobao_account" d="M938.209 79.697c-81.046-49.527-85.941-42.958-129.049-42.958s-143.235-4.82-159.794 23.827c-12.663 21.904 49.951 74.927 49.951 74.927s27.898-36.564 66.835-34.316c38.937 2.248 132.97 31.569 132.97 59.292s0 424.585 0 424.585c0 0-25.95 96.131-74.927 99.902-48.977 3.746-194.011 21.179-273.108-25.2-15.135-8.866-29.496-15.785-43.183-21.479h64.687c0 0 16.559 9.091 0-21.479-4.121-7.593-16.834-23.402-33.617-42.808h291.965v-64.312l-181.573 0.45v-74.927h199.805v-74.927h-199.805v-124.878c46.654 10.040 98.129 20.63 99.902 24.976 3.372 8.267-24.976 49.951-24.976 49.951l74.927 24.976c0 0 49.776-82.469 52.948-126.701s-77.924-73.104-77.924-73.104v74.927c0 0-98.928-54.272-149.854-74.927s-156.647-39.761-249.756 0c-93.109 39.761-74.927 174.829-74.927 174.829s149.854 3.846 149.854 0c0-94.932-13.287-101.726 80.022-101.726l-5.095 151.677h-174.829v74.927l50.875-11.739-43.008 64.437c50.626 29.346 86.915 102.4 101.001 134.594-24.626-5.395-45.63-6.494-62.264-6.244-5.769-7.593-11.539-14.711-17.208-20.93-49.851-54.747-64.537-64.462-64.537-64.462l-64.512 42.983c0 0 121.082 146.407 129.049 236.319l107.52-42.983c0 0-9.316-18.832-23.577-44.806 1.224 1.099 2.073 1.848 2.073 1.848s23.227-9.441 43.008 0c19.781 9.441 99.228 35.241 141.287 35.665 23.127 0.225 190.664 4.171 245.81-14.186 60.116-19.98 129.049-91.211 129.049-128.899s0-386.722 0-386.722c0 0-4.995-100.852-86.016-150.378zM481.305 509.677c-41.235-44.856-80.646-86.116-80.746-86.216l123.929 11.739 5.095 74.477h-48.278zM162.341 659.98c-48.278 0-87.415 39.137-87.415 87.415s39.137 87.415 87.415 87.415c48.278 0 87.415-39.137 87.415-87.415s-39.137-87.415-87.415-87.415zM228.951 484.002c42.508-60.616 9.441-141.187-29.147-223.632s-75.027-174.979-75.027-174.979l-125.003 83.918c0 0-4.121 4.221 75.152 91.061 79.298 86.84 99.902 112.315 99.902 149.854 0 78.673-154.199 115.737-154.199 115.737l41.659 83.918c0 0 117.161-55.296 166.662-125.877z" />
<glyph unicode="&#xe924;" glyph-name="telephone" d="M287.817-26.331v0c-2.536 0-5.022 0.073-7.509 0.244-95.134 6.29-193.634 80.482-224.256 168.911-0.951 2.755-1.755 5.681-2.316 8.68-3.56 18.944 2.072 38.741 15.067 52.882 48.591 53.102 97.231 91.355 144.311 128.39 9.679 7.582 18.554 14.58 27.404 21.626 17.774 14.19 43.179 17.335 63.878 7.704l8.68-3.95c38.595-17.774 66.438-30.622 89.454-30.598 15.604 0 36.84 4.974 76.142 42.008 103.010 96.963 161.938 185.198 158.842 205.775-1.341 6.973-9.679 17.359-18.505 28.404-15.653 19.383-36.791 45.568-43.886 82.944-2.853 15.189 0.024 30.696 8.119 43.715 22.479 36.401 80.286 127.122 130.779 182.711 10.825 11.995 25.819 19.139 42.106 19.992 49.664 2.462 101.522-21.821 144.384-68.364 34.426-37.498 59.88-85.699 68.12-128.975 0.975-5.266 1.682-10.338 2.194-15.238 4.998-52.955-28.648-133.632-57.71-192.024-32.305-64.805-75.922-135.68-111.128-180.59-97.304-124.050-213.016-228.425-325.851-294.010l-17.579-10.24c-61.245-35.986-119.125-69.998-170.74-69.998zM278.723 319c-2.828 0-5.534-0.951-7.778-2.731-9.021-7.168-17.969-14.263-26.965-21.309-46.226-36.328-93.282-73.338-139.215-123.514-2.633-2.901-3.803-7.046-3.096-10.898 24.332-70.656 107.398-133.047 181.882-137.947 39.4-2.438 92.916 29.379 150.357 63.147l17.871 10.435c107.496 62.464 218.307 162.572 311.857 281.844 33.329 42.545 74.874 110.153 105.862 172.251 51.931 104.277 54.248 150.504 52.834 165.547-0.366 3.413-0.878 7.168-1.585 10.947-6.607 34.645-27.55 73.947-56.076 105.009-32.866 35.694-70.607 54.394-105.886 52.687-3.413-0.219-6.388-1.634-8.582-4.096-49.152-54.101-108.471-148.114-125.464-175.64-1.658-2.682-2.243-5.876-1.658-9.021 4.803-25.332 20.163-44.349 33.719-61.123 13.019-16.262 25.039-31.256 28.672-50.2 13.629-71.973-154.136-232.302-173.3-250.368-41.155-38.741-73.899-55.272-109.568-55.272-33.719-0.024-65.609 14.702-109.763 35.035l-8.728 3.998c-1.853 0.853-3.608 1.219-5.388 1.219z" />
<glyph unicode="&#xe925;" glyph-name="video" d="M365.714 270.117v397.531l344.259-198.754-344.259-198.778zM414.476 583.192v-228.596l197.973 114.298-197.973 114.298zM950.199 118.248h-876.398c-26.795 0-49.42 20.212-49.42 44.154v620.763c0 23.625 21.699 42.13 49.42 42.13h876.398c27.697 0 49.42-18.505 49.42-42.13v-620.788c0-23.918-22.626-44.13-49.42-44.13zM73.143 167.692l877.056-0.683c0.244 0 0.488 0.024 0.658 0.049v609.475c-0.219 0-0.439 0-0.658 0h-876.398c-0.219 0-0.439 0-0.658-0.024v-608.817zM195.048 69.486h633.905v-48.762h-633.905v48.762z" />
<glyph unicode="&#xe926;" glyph-name="wangba" d="M972.8 204.8h-384v-102.4h179.2v-51.2h-512v51.2h179.2v102.4h-384c-28.288 0-51.2 22.912-51.2 51.2v512c0 28.288 22.912 51.2 51.2 51.2h921.6c28.288 0 51.2-22.912 51.2-51.2v-512c0-28.288-22.912-51.2-51.2-51.2zM537.6 102.4v102.4h-51.2v-102.4h51.2zM972.8 768h-921.6v-512h921.6v512z" />
<glyph unicode="&#xe927;" glyph-name="wifi" d="M573.659 137.533c0-39.48-32.005-71.485-71.485-71.485s-71.485 32.005-71.485 71.485c0 39.48 32.005 71.485 71.485 71.485s71.485-32.005 71.485-71.485zM311.369 315.49c86.942 86.991 181.736 96.939 261.559 69.437 44.203-15.262 88.332-49.25 113.274-70.754l-38.936-45.178c-6.437 5.413-75.313 57.637-135.217 65.317-44.105 5.656-112.323-23.43-154.234-65.317l-46.446 46.494zM173.129 428.081c90.112 90.112 220.965 158.33 339.383 153.21 187.294-7.899 314.636-154.039 319.951-160.28l-50.834-44.617c-1 1.17-145.847 127.512-278.845 127.512-121.076 0-181.492-40.107-271.628-130.243l-58.027 54.418zM42.569 554.764c141.58 141.58 292.84 217.161 458.484 215.576 279.211-2.536 478.598-209.993 486.985-218.917l-46.348-40.57-19.602-18.237c-1.634 1.829-196.827 193.829-423.302 195.462-133.12 0.853-277.699-80.872-395.922-199.899l-66.853 60.002 6.558 6.583z" />
<glyph unicode="&#xe928;" glyph-name="account" d="M588.093 558.104l-57.295-100.279h-37.644l-57.32 100.279h-42.935l57.685-100.962h-41.594v-48.762h69.461l0.39-0.683h6.046v-50.834h-75.898v-48.762h75.898v-100.962h48.762v100.962h75.898v48.762h-75.898v50.834h11.508l0.414 0.683h63.976v48.762h-36.133l57.661 100.962zM963.048 788.724h-902.095c-26.917 0-48.762-21.845-48.762-48.762v-609.524c0-26.917 21.845-48.762 48.762-48.762h902.095c26.917 0 48.762 21.845 48.762 48.762v609.524c0 26.917-21.845 48.762-48.762 48.762zM963.048 739.962v-97.524h-902.095v97.524h902.095zM60.952 130.438v463.238h902.095v-463.238h-902.095z" />
<glyph unicode="&#xe929;" glyph-name="architecture" d="M841.143 651.727h-63.098l-275.7 273.993-280.649-273.993h-63.22c-26.892 0-48.762-21.87-48.762-48.762v-48.762c0-26.892 21.87-48.762 48.762-48.762h24.381v-512c0-26.917 21.87-48.762 48.762-48.762h536.381c26.892 0 48.762 21.845 48.762 48.762v512h24.381c26.892 0 48.762 21.87 48.762 48.762v48.762c0 26.892-21.87 48.762-48.762 48.762zM402.213 310.394h196.072l-0.878-316.952h-195.121l-0.073 316.952zM402.408 359.156c5.632 49.006 46.885 87.357 97.402 87.357 51.054 0 92.623-39.131 97.621-87.357h-195.023zM841.143 554.203h-73.143v-560.762h-121.905l-0.073 339.48 1.073 15.067c0 81.213-66.072 147.285-147.285 147.285s-147.285-66.072-147.212-149.114l0.878-352.719h-121.856v560.762h-73.143v48.762h83.066l260.51 254.293 255.902-254.293h83.188v-48.762z" />
<glyph unicode="&#xe92a;" glyph-name="audio" d="M956.855 381.781l-47.86 9.289c4.852 25.039 7.314 50.859 7.314 76.654 0 220.696-179.541 400.262-400.262 400.262s-400.238-179.59-400.238-400.286c0-25.795 2.462-51.541 7.314-76.605l-47.884-9.289c-5.437 28.087-8.192 57.003-8.192 85.87 0 247.613 201.435 449.048 449.024 449.048s449.024-201.435 449.024-449.024c-0.024-28.891-2.779-57.783-8.241-85.918zM216.405 26.112c-79.141 0-154.843 48.933-192.853 124.635-25.917 51.639-31.988 109.495-17.042 162.938 15.165 54.296 50.078 97.524 98.28 121.71 30.354 15.238 63.951 21.748 98.133 19.285l10.264-0.756 193.585-230.302-0.536-9.655c-4.096-73.996-43.691-136.826-105.911-168.082-26.161-13.141-54.394-19.773-83.919-19.773zM188.757 410.819c-21.894 0-42.789-7.119-62.098-16.798-35.791-17.944-61.781-51.468-73.192-92.355-11.678-41.716-6.802-87.698 13.653-128.488 29.818-59.392 88.43-98.036 149.285-98.036 21.845 0 42.715 4.754 62.025 14.458 43.813 21.992 72.631 67.73 78.336 119.954l-167.351 201.265c-0.219 0-0.439 0-0.658 0zM105.421 410.182l243.658-297.839-37.742-30.876-243.658 297.839 37.742 30.876zM822.345 26.112v0c-29.55 0-57.783 6.656-83.944 19.797-62.196 31.232-101.815 94.062-105.911 168.082l-0.512 9.655 193.56 230.302 10.289 0.756c34.182 2.462 67.755-4.047 98.109-19.285 48.226-24.186 83.115-67.438 98.28-121.71 14.921-53.419 8.875-111.275-17.042-162.938-38.034-75.727-113.737-124.66-192.829-124.66zM681.96 207.287c5.681-52.224 34.499-95.842 78.336-117.833 19.285-9.679 40.155-14.604 62.025-14.604h0.024c60.855 0 119.418 38.376 149.26 97.768 20.456 40.789 25.307 86.211 13.653 127.927-11.41 40.887-37.4 73.314-73.192 91.258-19.505 9.801-40.96 15.384-62.732 14.629l-167.375-199.144zM933.148 410.244l37.756-30.857-243.52-297.973-37.756 30.857 243.52 297.973z" />
<glyph unicode="&#xe92b;" glyph-name="cell_phone" d="M819.2-68.267h-614.4c-37.717 0-68.267 30.549-68.267 68.267v887.467c0 37.717 30.549 68.267 68.267 68.267h614.4c37.717 0 68.267-30.549 68.267-68.267v-887.467c0-37.717-30.549-68.267-68.267-68.267zM819.2 341.333v0 546.133h-614.4v-887.467h614.4v341.333zM716.8 136.533h-409.6c-37.717 0-68.267 30.549-68.267 68.267v580.267c0 37.717 30.549 68.267 68.267 68.267h409.6c37.717 0 68.267-30.549 68.267-68.267v-580.267c0-37.717-30.549-68.267-68.267-68.267zM716.8 785.066h-409.6v-580.267h409.6v580.267zM546.133 102.4v-68.267h-68.267v68.267h68.267z" />
<glyph unicode="&#xe92c;" glyph-name="cell_phonenumber" d="M819.2-68.267h-614.4c-37.717 0-68.267 30.549-68.267 68.267v887.467c0 37.717 30.549 68.267 68.267 68.267h614.4c37.717 0 68.267-30.549 68.267-68.267v-887.467c0-37.717-30.549-68.267-68.267-68.267zM819.2 102.4h-614.4v68.267h614.4v716.8h-614.4v-887.467h614.4v102.4zM410.863 523.434c-21.777 24.201-35.396 55.876-35.396 90.965 0 75.401 61.133 136.533 136.533 136.533s136.533-61.133 136.533-136.533c0-35.089-13.619-66.765-35.396-90.965 81.34-38.127 137.796-120.491 137.796-216.235h-68.267c0 94.242-76.425 170.667-170.667 170.667s-170.667-76.425-170.667-170.667h-68.267c0 95.744 56.457 178.108 137.796 216.235zM580.267 614.4c0 37.717-30.549 68.267-68.267 68.267s-68.267-30.549-68.267-68.267c0-37.717 30.549-68.267 68.267-68.267s68.267 30.549 68.267 68.267z" />
<glyph unicode="&#xe92d;" glyph-name="email" d="M955.733-17.067h-887.467c-37.717 0-68.267 30.549-68.267 68.267v512c0 37.717 30.549 68.267 68.267 68.267v204.8c0 37.717 30.549 68.267 68.267 68.267h750.933c37.717 0 68.267-30.549 68.267-68.267v-204.8c37.717 0 68.267-30.549 68.267-68.267v-512c0-37.717-30.549-68.267-68.267-68.267zM854.391 51.2l-335.701 202.547-336.077-202.547h671.778zM68.267 525.551v-462.302l383.283 231.014-383.283 231.287zM887.467 563.2v273.067h-750.933v-272.213l381.099-229.956 380.109 229.103h-10.274zM955.733 517.154l-370.961-223.573 370.961-223.812v447.386zM204.8 768h614.4v-68.267h-614.4v68.267zM512 563.2h-307.2v68.267h307.2v-68.267z" />
<glyph unicode="&#xe92e;" glyph-name="father_child" d="M750.933-68.267c-150.801 0-273.067 122.266-273.067 273.067s122.266 273.067 273.067 273.067c150.801 0 273.067-122.266 273.067-273.067s-122.266-273.067-273.067-273.067zM750.933 409.6c-41.779 0-80.555-12.663-112.947-34.133h10.547c-7.202 0-13.517-2.731-19.012-6.554-2.185-1.604-4.164-3.482-6.281-5.188-5.325-6.007-8.841-13.722-8.841-22.391 0-18.842 15.292-34.133 34.133-34.133s34.133 15.292 34.133 34.133c0 18.842 15.292 34.133 34.133 34.133s34.133-15.292 34.133-34.133c0-56.559-45.841-102.4-102.4-102.4-35.942 0-67.447 18.603-85.743 46.66-10.65-24.815-16.657-52.087-16.657-80.794 0-5.325 1.161-10.308 1.57-15.531 7.646 14.711 40.209 20.002 75.81 11.537 37.615-8.909 64-29.662 58.948-46.285-5.018-16.657-39.595-22.938-77.175-13.995-26.897 6.383-47.821 18.807-55.842 31.471 15.77-97.417 99.635-171.998 201.489-171.998 113.118 0 204.8 91.682 204.8 204.8s-91.682 204.8-204.8 204.8zM827.358 175.582c-37.786-9.728-72.055-4.574-76.561 11.571s22.46 37.103 60.245 46.865c37.786 9.728 72.055 4.574 76.561-11.571s-22.46-37.103-60.245-46.865zM777.455 736.665c4.642-17.408 7.612-35.362 7.612-53.999v-68.267c1.092-11.23 0-22.596 0-34.133 0-24.815-3.345-47.718-8.294-69.564-8.533 0.717-17.101 1.297-25.839 1.297-15.565 0-30.72-1.536-45.67-3.755 6.929 21.743 11.537 45.329 11.537 72.021 0 11.708 1.399 22.903 0 34.133v68.267c0 27.409-8.465 52.907-22.255 75.878 25.873 8.738 45.193 24.439 52.668 43.52-0.102 0.171-0.171 0.341-0.273 0.478 2.355 5.359 3.994 10.889 3.994 16.657 0 33.451-76.254 61.133-131.789 67.004-0.785 0.41-1.638 0.717-2.389 1.092-0.785 0.102-1.536 0.171-2.355 0.171-40.482 0-75.127-15.804-91.75-38.502-14.473 2.697-29.355 4.369-44.783 4.369-113.118 0-170.667-76.425-170.667-170.667v-68.267h2.935c-1.365-11.23-2.935-22.426-2.935-34.133 0-125.713 83.49-196.949 189.133-203.503-33.212-49.084-52.599-108.237-52.599-171.964 0-12.629 0.99-24.986 2.458-37.239-183.535-16.077-330.411-96.324-368.299-167.561h444.518c24.917-27.785 54.716-51.029 88.201-68.267h-610.611v68.267h6.212c31.676 98.987 194.219 204.971 403.388 232.141v92.604c-100.045 36.113-170.667 126.635-170.667 255.522 0 11.537-1.092 22.903 0 34.133v68.267c0 131.959 88.132 238.933 238.933 238.933-1.399 0-2.731-0.341-4.13-0.375 33.075 21.231 76.015 34.509 123.597 34.509 103.697 0 221.867-61.133 221.867-136.533 0-32.017-15.77-61.030-41.131-84.309-0.137 0.614-0.478 1.161-0.614 1.775z" />
<glyph unicode="&#xe92f;" glyph-name="group_members" d="M256-36.267v64c0 166.752 106.496 308.288 255.040 361.344-57.344 40.544-95.040 107.072-95.040 182.656 0 123.712 100.288 224 224 224s224-100.288 224-224c0-75.584-37.696-142.112-95.040-182.656 148.544-53.056 255.040-194.592 255.040-361.344v-64h-768zM800 571.733c0 88.352-71.648 160-160 160s-160-71.648-160-160c0-88.352 71.648-160 160-160s160 71.648 160 160zM640 347.733c-176.736 0-320-143.264-320-320h640c0 176.736-143.264 320-320 320zM567.264 817.109c-32.832 26.272-73.92 42.624-119.264 42.624-106.048 0-192-85.952-192-192 0-89.472 61.504-164.032 144.352-185.312 9.664-25.92 23.232-49.888 40.256-71.072-208.64-3.968-376.608-174.048-376.608-383.616h160v-64h-224v64c0 198.656 129.408 366.848 308.448 425.536-70.048 45.696-116.448 124.608-116.448 214.464 0 141.376 114.624 256 256 256 80.992 0 153.056-37.696 199.968-96.416-2.656 0.096-5.28 0.416-7.968 0.416-25.28 0-49.664-3.808-72.736-10.624z" />
<glyph unicode="&#xe930;" glyph-name="guardian" d="M952.832 341.333c-29.491-229.069-344.508-409.6-440.832-409.6-64.205 0-408.269 180.531-440.559 409.6h-3.174v444.655c11.332-0.58 22.733-0.922 34.133-0.922 178.039 0 354.475 74.991 373.555 170.667h72.090c19.081-95.676 195.516-170.667 373.555-170.667 11.401 0 22.801 0.341 34.133 0.922v-444.655h-2.901zM512 0c0.922 0 104.687 46.797 202.923 121.071-9.557 104.209-96.222 186.129-202.923 186.129-106.769 0-193.434-81.988-202.923-186.266 98.099-74.206 201.762-120.934 202.923-120.934zM614.4 477.866c0 56.559-45.841 102.4-102.4 102.4s-102.4-45.841-102.4-102.4c0-56.559 45.841-102.4 102.4-102.4s102.4 45.841 102.4 102.4zM887.467 718.438c-160.154 8.124-310.409 71.509-375.467 159.71-65.058-88.201-215.313-151.586-375.467-159.71v-342.972c0-75.093 49.152-144.862 111.684-203.537 21.026 79.906 77.619 144.725 151.45 178.381-35.499 31.266-58.334 76.527-58.334 127.556 0 94.276 76.425 170.667 170.667 170.667s170.667-76.39 170.667-170.667c0-51.029-22.835-96.29-58.334-127.556 73.796-33.621 130.389-98.406 151.415-178.278 62.566 58.641 111.718 128.41 111.718 203.435v342.972z" />
<glyph unicode="&#xe931;" glyph-name="huhuguanxi" d="M955.733 136.533h-68.267v-136.533c0-37.717-30.549-68.267-68.267-68.267h-750.933c-37.717 0-68.267 30.549-68.267 68.267v750.933c0 37.717 30.549 68.267 68.267 68.267h136.533v68.267c0 37.717 30.549 68.267 68.267 68.267h682.667c37.717 0 68.267-30.549 68.267-68.267v-682.667c0-37.717-30.549-68.267-68.267-68.267zM68.267 0h750.933v750.933h-750.933v-750.933zM955.733 887.466h-682.667v-68.267h546.133c37.717 0 68.267-30.549 68.267-68.267v-546.133h68.267v682.667zM614.4 136.533l-170.667 102.4-170.667-102.4 68.267 170.667-136.533 102.4h170.667l68.267 204.8 68.267-204.8h170.667l-136.533-102.4 68.267-170.667z" />
<glyph unicode="&#xe932;" glyph-name="human_alarm" d="M853.333 477.866c-75.401 0-136.533 106.974-136.533 238.933s61.133 238.933 136.533 238.933c75.401 0 136.533-106.974 136.533-238.933s-61.133-238.933-136.533-238.933zM853.333 887.466c-37.717 0-68.267-76.425-68.267-170.667s30.549-170.667 68.267-170.667c37.717 0 68.267 76.425 68.267 170.667s-30.549 170.667-68.267 170.667zM843.844-24.645c-17.988-17.954-39.765-29.696-63.078-36.625 2.355-1.741 4.506-3.516 7.168-5.222-12.322-0.58-24.508-1.775-37.001-1.775v0.751c-397.346 7.885-716.8 286.925-716.8 630.716 0 5.769 0.819 11.332 0.99 17.067h0.58c-0.58 11.366-1.57 22.665-1.57 34.133 0 10.718 0.922 21.197 1.673 31.744-5.632 47.548 7.646 95.095 41.95 129.434 63.147 63.113 171.213 57.446 241.357-12.732 70.178-70.144 75.844-178.21 12.732-241.357-8.465-8.465-13.79-15.599-18.432-21.641 27.75-139.981 146.057-246.545 291.157-258.594 64.205 49.391 161.451 40.55 226.543-24.508 70.178-70.178 75.844-178.244 12.732-241.391zM780.322 165.922c-42.086 42.086-104.653 47.787-139.742 12.698-3.482-3.482-6.281-7.441-8.977-11.435-29.833-5.632-64.137 1.399-85.47 3.482 0.683 2.492 0.239 1.263-0.171 0.034-169.165 32.085-287.915 179.541-305.050 353.553 4.028 1.809 7.817 4.233 11.674 6.451-2.15 8.431-2.389 16.828 2.253 24.951 9.626 3.823 18.637 9.114 26.18 16.657 35.089 35.089 29.389 97.655-12.698 139.742s-104.653 47.787-139.742 12.698c-11.947-11.947-18.807-27.204-21.47-43.657l-4.71 1.57c0 0-4.403-40.789 1.638-102.4h-0.614c-0.205-5.734-1.024-11.298-1.024-17.067 0-306.176 288.905-554.735 648.533-562.483v1.434c15.804 4.233 30.515 12.459 42.086 24.030 35.089 35.089 29.389 97.655-12.698 139.742zM545.963 170.7c0.068 0 0.102-0.034 0.171-0.034-0.887-2.389-0.58-1.161-0.171 0.034zM580.267 955.733h68.267v-477.867h-68.267v477.867zM443.733 955.733h68.267v-477.867h-68.267v477.867z" />
<glyph unicode="&#xe933;" glyph-name="mate" horiz-adv-x="1023" d="M954.779 580.641c1.773 17.425 0 33.281 0 51.149 0 5.763-0.75 11.321-0.955 17.050h7.297c-3.649 4.944-6.342 10.468-6.342 17.050 0 122.416-99.229 221.645-221.645 221.645s-221.645-99.229-221.645-221.645c0-5.831 1.262-11.321 1.705-17.050h-1.705c0-18.823-15.276-34.099-34.099-34.099s-34.099 15.276-34.099 34.099h-8.082c-22.199 78.633-93.705 136.397-179.464 136.397-103.593 0-187.546-83.986-187.546-187.546 0-47.193 18.584-89.067 47.603-121.734 43.374-33.997 80.883-75.052 110.959-121.461 0.58-0.921 1.193-1.773 1.773-2.694 1.91-2.967 3.99-5.763 5.831-8.764-0.273 0-0.58 0.102-0.852 0.102 46.204-74.78 73.382-230.647 73.382-325.136 0-5.115-0.546-10.093-0.75-15.174 11.628-0.648 23.051-1.841 34.849-1.875 49.614-0.068 112.391 28.746 175.338 62.743 17.902-8.832 30.144-22.642 63.356-62.743-28.95-20.289-164.767-68.198-238.695-68.198-14.083 0-27.825 1.159-41.669 1.944-0.102-0.511-0.136-1.023-0.205-1.534-23.085 0.273-37.987-3.035-60.424-0.409 4.978 26.052 0 57.73 0 85.248 0 116.858-47.671 290.253-123.883 367.249-18.448 12.208-35.088 26.904-49.785 43.306-1.296 0.955-2.319 2.182-3.58 3.103-4.399 5.149-8.286 10.741-12.276 16.231-0.477 0.614-0.955 1.228-1.398 1.841-4.74 6.649-9.070 13.571-13.162 20.698-1.398 2.387-2.864 4.74-4.194 7.195-2.898 5.456-5.456 11.082-7.979 16.743-1.944 4.331-3.921 8.627-5.626 13.060-1.569 4.16-2.83 8.457-4.194 12.719-1.978 6.070-3.887 12.139-5.388 18.414-0.205 0.852-0.511 1.603-0.716 2.455 0.102-0.034 0.17-0.102 0.273-0.136-4.228 18.277-6.786 37.202-6.786 56.809 0 141.239 114.505 255.744 255.744 255.744 82.213 0 154.538-39.351 201.185-99.706 37.202 117.097 146.763 202.004 276.204 202.004 160.062 0 289.843-129.782 289.843-289.843 0-6.888-1.33-12.412-3.41-17.050 0 0 3.41-5.524 3.41-102.298-8.354 8.082-30.382 29.496-68.198 34.099zM409.191 307.848c-4.637 94.046 76.348 170.496 170.496 170.496 43.647 0 83.134-16.709 113.278-43.681 24.006 65.164 86.032 111.88 159.516 111.88 94.148 0 170.496-76.348 170.496-170.496 0-67.278-34.099-102.298-34.099-102.298-83.714-51.149-136.397-130.566-136.397-238.695h-68.198c0 0.477 0.102 0.887 0.102 1.364-5.763-0.341-11.321-1.364-17.152-1.364-238.047 0-353.302 176.873-358.042 272.794zM793.012 104.514c20.937 89.033 47.807 162.926 127.668 203.334 16.334 18.141 34.099 41.874 34.099 68.198 0 56.502-45.795 102.298-102.298 102.298s-102.298-45.795-102.298-102.298h-14.697c1.228-2.796 1.773-5.899 2.898-8.764 7.093-6.24 11.798-15.14 11.798-25.336 0-18.823-15.276-34.099-34.099-34.099s-34.099 15.276-34.099 34.099h-6.274c-14.083 39.657-51.558 68.198-96.023 68.198-56.502 0-102.298-45.795-102.298-102.298 0 0 45.727-196.616 289.843-204.595 8.695-0.273 17.288 0.443 25.779 1.262z" />
<glyph unicode="&#xe934;" glyph-name="micro_blog_friends" d="M512-68.267c-282.761 0-512 229.239-512 512s229.239 512 512 512c282.761 0 512-229.239 512-512s-229.239-512-512-512zM512 887.466c-245.077 0-443.733-198.656-443.733-443.733s198.656-443.733 443.733-443.733c245.077 0 443.733 198.656 443.733 443.733s-198.656 443.733-443.733 443.733zM887.467 477.866c0-207.36-241.357-409.6-375.467-409.6-132.779 0-375.467 202.24-375.467 409.6h1.195c-0.512 5.666-1.195 11.264-1.195 17.067 0 122.539 99.328 221.867 221.867 221.867 59.733 0 113.698-23.893 153.6-62.259 39.902 38.366 93.867 62.259 153.6 62.259 122.539 0 221.867-99.328 221.867-221.867 0-5.803-0.683-11.401-1.195-17.067h1.195zM819.2 494.933c0 84.821-68.779 153.6-153.6 153.6-56.627 0-93.047-22.596-119.467-68.267 7.339-6.246 0-23.723 0-34.133 0-18.227-14.37-32.802-32.324-33.758-0.034-0.137-0.068-0.239-0.102-0.375h-3.413c-0.034 0.137-0.068 0.239-0.102 0.375-17.954 0.956-32.324 15.531-32.324 33.758 0 10.411-7.339 27.887 0 34.133-26.419 45.67-62.839 68.267-119.467 68.267-84.821 0-153.6-68.779-153.6-153.6 0-5.803-0.58-11.469-1.195-17.067h1.195c0-169.677 239.718-341.333 307.2-341.333 71.031 0 307.2 171.657 307.2 341.333h1.195c-0.614 5.598-1.195 11.264-1.195 17.067z" />
<glyph unicode="&#xe935;" glyph-name="micro_blog_staterelease" d="M512 29.013c-282.782 0-512 149.858-512 334.769 0 49.585 0 79.714 39.385 137.846 271.399 400.66 471.001 354.462 433.231 354.462 65.26 0 118.154-52.894 118.154-118.154 0-33.871-16.542-57.226-39.385-78.769 12.918-42.85 39.385-39.385 39.385-39.385 58.919 70.026 125.164 87.906 177.231 78.769 53.563-9.374 98.462-44.071 98.462-98.462 0-19.732-6.498-37.573-16.502-52.854 5.514-2.127 10.91-3.82 16.502-6.223 16.266-6.932 157.538-91.136 157.538-177.231 0-184.911-229.218-334.769-512-334.769zM472.615 541.013c-195.781 0-354.462-105.787-354.462-236.308s158.681-196.923 354.462-196.923c195.781 0 354.462 105.787 354.462 236.308s-158.681 196.923-354.462 196.923zM433.231 147.167c-108.741 0-196.923 20.283-196.923 118.154s88.182 196.923 196.923 196.923c108.741 0 196.923-39.975 196.923-137.846s-88.182-177.231-196.923-177.231zM374.154 344.090c-32.61 0-59.077-26.466-59.077-59.077s26.466-59.077 59.077-59.077c32.61 0 59.077 26.466 59.077 59.077s-26.466 59.077-59.077 59.077z" />
<glyph unicode="&#xe936;" glyph-name="mixture" d="M849.984 488.149c4.992 22.656 7.744 45.856 7.744 69.344 0 176.256-143.36 319.648-319.616 319.648-142.752 0-268.384-96.16-307.2-231.584-109.696-19.584-193.312-115.456-193.312-230.688 0-129.344 105.216-234.592 234.56-234.592 66.56 0 126.624 28 169.344 72.672 31.104-9.888 63.456-15.136 96.608-15.136 10.496 0 21.024 0.576 31.488 1.6 23.168-92.32 107.392-160.608 205.184-160.608 116.704 0 211.648 94.944 211.648 211.648 0 88.608-55.776 166.912-136.448 197.696zM272.16 244.277c-94.048 0-170.56 76.544-170.56 170.592s76.512 170.56 170.56 170.56 170.592-76.512 170.592-170.56-76.544-170.592-170.592-170.592zM480.928 308.405c16.384 32 25.824 68.128 25.824 106.464 0 120.256-91.040 219.52-207.776 232.896 37.024 97.728 132.032 165.376 239.104 165.376 140.928 0 255.616-114.688 255.616-255.648 0-27.712-4.384-54.944-13.056-80.928-11.456-34.496-29.92-65.664-54.784-92.544-36.608-39.616-83.712-66.24-136.224-76.992-36.064-7.36-73.28-6.688-108.704 1.376zM774.784 142.837c-67.296 0-125.344 46.304-142.4 109.312 53.664 16.48 101.824 46.56 140.512 88.448 23.936 25.92 43.040 55.072 57.152 86.848 54.816-22.176 92.416-76.096 92.416-136.928-0.032-81.44-66.272-147.68-147.68-147.68z" />
<glyph unicode="&#xe937;" glyph-name="mother_child" d="M750.933-68.267c-150.801 0-273.067 122.266-273.067 273.067s122.266 273.067 273.067 273.067c150.801 0 273.067-122.266 273.067-273.067s-122.266-273.067-273.067-273.067zM750.933 409.6c-41.779 0-80.555-12.663-112.947-34.133h10.547c-7.202 0-13.517-2.731-19.012-6.554-2.185-1.604-4.164-3.482-6.281-5.188-5.325-6.007-8.841-13.722-8.841-22.391 0-18.842 15.292-34.133 34.133-34.133s34.133 15.292 34.133 34.133v0c0 18.842 15.292 34.133 34.133 34.133s34.133-15.292 34.133-34.133c0-56.559-45.841-102.4-102.4-102.4-35.942 0-67.447 18.603-85.743 46.66-10.65-24.815-16.657-52.087-16.657-80.794 0-5.325 1.161-10.308 1.57-15.531 7.646 14.711 40.209 20.002 75.81 11.537 37.615-8.909 64-29.662 58.948-46.285-5.018-16.657-39.595-22.938-77.175-13.995-26.897 6.383-47.821 18.807-55.842 31.471 15.77-97.417 99.635-171.998 201.489-171.998 113.118 0 204.8 91.682 204.8 204.8s-91.682 204.8-204.8 204.8zM827.358 175.582c-37.786-9.728-72.055-4.574-76.561 11.571s22.46 37.103 60.245 46.865c37.786 9.728 72.055 4.574 76.561-11.571s-22.46-37.103-60.245-46.865zM736.529 511.283c-31.812 66.594-51.302 142.199-53.316 239.65h-0.546c0 94.242-76.425 136.533-170.667 136.533s-170.667-42.291-170.667-136.533h-0.546c-2.765-132.813-37.444-225.553-92.092-310.033 71.305-38.912 156.16-61.918 247.433-64.444-13.995-20.719-25.19-43.418-33.826-67.311-110.114 8.431-210.739 44.51-292.25 99.84l0.614 0.614v33.451c59.733 81.101 98.884 169.54 101.888 307.883h0.512c0 131.959 106.974 204.8 238.933 204.8s238.933-72.841 238.933-204.8h0.512c2.253-103.834 24.883-179.541 61.269-245.146-19.968 4.062-40.619 6.212-61.781 6.212-4.847 0-9.591-0.512-14.404-0.717zM409.6 307.2h51.985c-11.366-32.085-17.852-66.423-17.852-102.4 0-0.853 0.137-1.707 0.137-2.56-194.185-13.653-346.658-85.777-371.61-202.24h450.15c24.917-27.785 54.716-51.029 88.201-68.267h-610.611v68.267h2.628c22.494 146.295 189.815 244.19 406.972 267.571v39.629z" />
<glyph unicode="&#xe938;" glyph-name="paccancy" d="M846.24 806.645c-84.608 81.056-195.648 125.728-312.736 125.728-124.384 0-240.288-49.472-326.336-139.232-83.584-87.168-128.16-201.632-125.632-322.336s51.968-233.216 139.104-316.704c84.576-81.088 195.648-125.76 312.736-125.76 124.448 0 240.288 49.44 326.304 139.232 172.512 179.904 166.432 466.592-13.44 639.072zM533.44 92.373c-100.544 0-195.904 38.304-268.512 107.936-74.816 71.68-117.216 168.256-119.392 271.872-1.984 92.864 28.8 181.312 86.816 252.544l240.544-230.592h-67.488v-32.864h101.792l41.088-39.36v-104h37.152v68.384l86.24-82.688-81.472-1.888-114.784 1.92c-44.928 0.8-76.992 16.736-96.224 47.872v203.168h-93.376v-35.264h56.672v-160.288c-12.544-11.744-32.864-31.232-60.96-58.336l19.52-39.52c16.832 22.848 35.872 44.128 57.152 63.808 22.208-36.192 59.52-54.624 111.936-55.264l110.496-2.368 128.352 0.384 81.248-77.92c-70.88-62.976-160.8-97.536-256.8-97.536zM671.968 391.893l-72.352 69.344h106.784c-0.928-15.552-2.048-29.024-3.328-40.48-1.888-18.912-12.32-28.416-31.104-28.864zM548.256 510.485l-41.056 39.328h41.056v-39.328zM834.464 236.085l-130.592 125.184c20.896 8.352 32.672 26.784 34.944 55.68 1.568 16.192 3.328 41.92 5.216 77.152h-158.624v55.712h126.24v31.936h-126.24v52.864h156.256v32.864h-156.256v56.224h-37.152v-56.224h-127.168v-32.864h127.168v-52.864h-74.368l-127.104 121.856c-2.72 3.552-5.28 6.912-8.096 10.56l-1.728-1.12-60.288 57.792c70.88 62.944 160.832 97.504 256.832 97.504 100.512 0 195.872-38.336 268.448-107.904 146.624-140.576 158.432-369.376 32.512-524.352z" />
<glyph unicode="&#xe939;" glyph-name="people_involved_in_the_case" horiz-adv-x="960" d="M931.616 486.581l-6.24-11.648c-23.84-305.312-214.080-543.2-445.376-543.2-16.96 0-33.632 1.536-50.112 4.032-137.504 18.336-258.24 111.968-320.448 262.368-30.4 60.608-52.576 129.216-65.248 202.784l-12.576 13.376c-20.288 38.976-31.616 81.216-31.616 125.44v64c0 35.36 28.64 64 64 64 0 0 2.656 0.8 6.72 2.016 33.984 180.288 204 285.984 409.28 285.984 205.312 0 375.36-105.728 409.312-286.048 4.032-1.152 6.688-1.952 6.688-1.952 35.36 0 64-28.64 64-64v-64c0-22.176-11.264-41.664-28.384-53.152zM813.664 283.733h5.12c1.312 3.52 2.4 7.232 3.648 10.784-4.448-3.648-8.768-7.424-13.664-10.784h4.896zM137.568 294.517c4.672-3.52 8.768-7.424 13.664-10.784h-10.016c25.888-68.576 61.984-128 105.184-175.072l111.168-84.192c38.496-18.368 79.584-28.736 122.432-28.736 134.976 0 253.44 98.848 321.92 248l-1.92-3.584v37.536c-62.432-40.992-139.36-70.368-224.704-82.976-1.76 23.84-11.744 45.312-27.712 61.152 171.808 19.488 260.096 88.576 305.12 155.040 4.192 24.256 7.584 48.928 9.344 74.336-67.104 17.824-224.32 54.496-381.792 54.496-157.76 0-315.264-36.704-382.304-54.496 1.664-23.712 4.704-46.784 8.448-69.504 45.28-68.864 135.008-140.48 306.016-159.872-15.968-15.84-25.952-37.312-27.712-61.152-85.344 12.608-162.272 41.984-224.704 82.976l-26.208 27.904c1.248-3.712 2.464-7.424 3.776-11.072zM480 891.733c-162.080 0-298.336-70.752-339.232-203.52 78.24 18.72 206.048 43.52 334.528 43.52 131.712 0 263.936-25.28 344.096-44.064-40.704 133.12-177.088 204.064-339.392 204.064zM896 603.733c0 0-206.88 64-414.336 64-208.544 0-417.664-64-417.664-64v-64c0 0 207.52 64 415.296 64 208.224 0 416.704-64 416.704-64v64zM384.704 194.709c3.648 49.696 44.672 57.024 95.296 57.024s91.648-7.328 95.296-57.024c-35.168-5.184-92.384-6.976-95.296-6.976s-60.128 1.792-95.296 6.976zM592 443.733c26.496 0 48-21.504 48-48s-21.504-48-48-48c-26.496 0-48 21.504-48 48s21.504 48 48 48zM368 347.733c-26.496 0-48 21.504-48 48s21.504 48 48 48c26.496 0 48-21.504 48-48s-21.504-48-48-48z" />
<glyph unicode="&#xe93a;" glyph-name="people_reported_the_cas" d="M904.533 341.333c-65.98 0-119.467 84.036-119.467 187.733s53.487 187.733 119.467 187.733c65.98 0 119.467-84.036 119.467-187.733s-53.487-187.733-119.467-187.733zM904.533 648.533c-28.262 0-51.2-53.487-51.2-119.467s22.938-119.467 51.2-119.467c28.262 0 51.2 53.487 51.2 119.467s-22.938 119.467-51.2 119.467zM785.067 750.933c-18.842 0-34.133 15.292-34.133 34.133v102.4h-682.667v-887.467h375.467c18.842 0 34.133-15.292 34.133-34.133s-15.292-34.133-34.133-34.133h-375.467c-37.717 0-68.267 30.549-68.267 68.267v887.467c0 37.717 30.549 68.267 68.267 68.267h682.667c37.717 0 68.267-30.549 68.267-68.267v-102.4c0-18.842-15.292-34.133-34.133-34.133zM648.533 716.8v-375.467h-68.267v375.467h68.267zM682.667 716.8h68.267v-375.467h-68.267v375.467zM204.8 529.066c0 5.769 0.853 11.332 1.058 17.067h68.301c-0.239-5.7-1.092-11.298-1.092-17.067 0-278.46 270.814-506.163 614.4-527.019v3.379c15.838 2.731 30.515 9.182 42.086 20.753 35.089 35.089 29.389 97.655-12.698 139.742s-104.653 47.787-139.742 12.698c-3.482-3.482-6.281-7.441-8.977-11.435-29.833-5.632-64.137 1.399-85.47 3.482 0.683 2.492 0.239 1.263-0.171 0.034-169.131 32.051-253.781 145.408-270.916 319.42 4.028 1.809-5.837 19.661-1.98 21.879-0.853 3.311 29.218 13.312 42.086 26.18 35.089 35.089 29.389 97.655-12.698 139.742s-104.653 47.787-139.742 12.698c-20.753-20.753-27.75-47.514-26.18-144.486h-66.901c-0.58 11.332-1.365 22.63-1.365 34.133 0 10.718 0.922 21.197 1.673 31.744-5.632 47.548 7.646 95.095 41.95 129.434 63.147 63.113 171.213 57.446 241.357-12.732 70.178-70.144 75.844-178.21 12.732-241.357-8.465-8.465-13.79-15.599-18.432-21.641 27.75-139.981 111.923-212.412 257.024-224.461 64.205 49.391 161.451 40.55 226.543-24.508 70.178-70.178 75.844-178.244 12.732-241.391-17.988-17.954-39.765-29.696-63.078-36.625 2.355-1.741 4.54-3.516 7.168-5.222-12.322-0.58-24.508-1.775-37.001-1.775 0 0 0 0 0 0v2.116c-381.303 21.47-682.667 279.381-682.667 595.217zM682.496 170.7c0.068 0 0.102-0.034 0.171-0.034-0.887-2.389-0.58-1.161-0.171 0.034z" />
<glyph unicode="&#xe93b;" glyph-name="police_case" d="M952.354 327.031c-94.549-94.72-247.808-94.72-342.323 0-62.669 62.771-82.842 151.177-62.43 231.39l-10.923-10.923-73.353 73.489c-25.327 25.361-25.941 65.058-3.789 92.262-14.814-8.363-31.71-13.517-49.937-13.517-12.288 0-23.893 2.526-34.782 6.485 0.137-2.185 0.649-4.267 0.649-6.485 0-56.559-45.841-102.4-102.4-102.4s-102.4 45.841-102.4 102.4c0 56.559 45.841 102.4 102.4 102.4 12.288 0 23.893-2.526 34.782-6.485-0.137 2.185-0.649 4.267-0.649 6.485 0 56.559 45.841 102.4 102.4 102.4s102.4-45.841 102.4-102.4c0-16.452-4.267-31.812-11.162-45.602l60.279 60.416c27.034 27.068 70.827 27.068 97.826 0l73.353-73.489-10.923-10.923c80.043 20.446 168.311 0.205 230.98-62.566 94.515-94.686 94.515-248.252 0-342.938zM273.067 733.866c-18.842 0-34.133-15.292-34.133-34.133s15.292-34.133 34.133-34.133c18.842 0 34.133 15.292 34.133 34.133s-15.292 34.133-34.133 34.133zM409.6 836.266c-18.842 0-34.133-15.292-34.133-34.133s15.292-34.133 34.133-34.133c18.842 0 34.133 15.292 34.133 34.133s-15.292 34.133-34.133 34.133zM610.031 767.966l-97.792-97.997 56.832-56.969c10.923 20.309 23.859 39.834 40.96 56.969 17.135 17.135 36.591 30.106 56.866 41.028l-56.866 56.969zM903.441 620.987c-67.516 67.652-176.981 67.652-244.497 0s-67.516-177.323 0-244.975c67.516-67.652 176.981-67.652 244.497 0s67.516 177.323 0 244.975zM375.467 529.066v-102.4h-15.223c70.11-41.643 117.623-117.316 117.623-204.8 0-131.959-106.974-238.933-238.933-238.933s-238.933 106.974-238.933 238.933c0 87.484 47.514 163.157 117.623 204.8h-15.223v102.4c0 37.717 30.549 68.267 68.267 68.267h136.533c37.717 0 68.267-30.549 68.267-68.267zM68.267 221.866c0-94.242 76.425-170.667 170.667-170.667s170.667 76.425 170.667 170.667c0 94.242-76.425 170.667-170.667 170.667s-170.667-76.425-170.667-170.667zM170.667 529.066v-79.36c21.777 6.519 44.373 11.093 68.267 11.093s46.49-4.574 68.267-11.093v79.36h-136.533z" />
<glyph unicode="&#xe93c;" glyph-name="qq_and_wechat_friends" d="M921.6 106.496v-140.629c0-18.842-15.292-34.133-34.133-34.133-9.114 0-17.306 3.686-23.415 9.523l-8.636-8.67-83.524 83.524c-33.417-9.865-68.881-16.111-106.291-16.111-179.098 0-324.267 122.266-324.267 273.067s145.169 273.067 324.267 273.067c179.098 0 324.267-122.266 324.267-273.067 0-62.908-25.771-120.457-68.267-166.571zM665.6 477.866c-141.38 0-256-91.682-256-204.8s114.62-204.8 256-204.8c36.762 0 71.066 7.066 102.502 18.398l14.882 14.882 70.349-70.349v105.335h1.707c40.926 36.284 66.56 83.831 66.56 136.533 0 113.118-114.62 204.8-256 204.8zM768 273.066c-28.262 0-51.2 22.938-51.2 51.2s22.938 51.2 51.2 51.2c28.262 0 51.2-22.938 51.2-51.2s-22.938-51.2-51.2-51.2zM563.2 273.066c-28.262 0-51.2 22.938-51.2 51.2s22.938 51.2 51.2 51.2c28.262 0 51.2-22.938 51.2-51.2s-22.938-51.2-51.2-51.2zM783.633 613.649c0.444 5.939 1.434 11.742 1.434 17.818 0 141.38-122.266 256-273.067 256s-273.067-114.62-273.067-256c0-6.076 0.99-11.878 1.434-17.818 70.178-46.694 161.826-65.946 262.622-67.072-36.284-15.872-68.915-36.83-96.7-61.85-124.553 17.271-167.356 61.406-167.356 61.406-18.842 0-34.133-15.292-34.133-34.133s15.292-34.133 34.133-34.133v-2.867c35.499-19.251 75.571-34.509 118.511-45.636-11.947-17.271-21.948-35.601-29.798-54.818-30.993 10.445-60.962 22.187-88.713 35.055-56.559 0-102.4 45.841-102.4 102.4 0 40.243 0.375 85.675 34.133 102.4-7.578 7.168 7.578 3.106 0.614 10.82 6.315 166.059 156.228 330.513 340.719 330.513s334.404-164.454 340.719-330.513c-6.963-7.714 8.192-3.652 0.614-10.82 33.178-16.452 34.099-60.655 34.133-100.352-50.21 33.997-111.206 56.661-177.937 63.693 26.419 9.66 51.644 20.958 74.103 35.908zM213.811 408.78c-62.157-4.198-111.411-55.433-111.411-118.647 0-37.376 17.545-104.448 44.407-126.362 4.779 14.37 10.786 28.194 18.432 41.028h5.427c0 18.842 15.292 34.133 34.133 34.133s35.499-15.326 34.133-34.133c-2.048-28.706-15.155-34.133-15.155-34.133-11.878-20.070-18.978-43.247-18.978-68.267 0-75.401 36.864-102.4 136.533-102.4 36.523 0 69.222 14.711 93.594 38.127 18.534-13.38 38.571-25.293 60.041-35.26-37.274-43.349-91.887-71.134-153.634-71.134-167.663 0-196.369 50.483-203.435 157.218-61.303 30.891-103.765 127.863-103.765 201.182 0 72.841 41.916 135.27 102.537 166.4 23.381-17.647 49.152-33.655 77.141-47.753z" />
<glyph unicode="&#xe93d;" glyph-name="qq_and_wechat_number2" d="M886.101 88.951c-7.066-106.735-35.772-157.218-203.435-157.218-71.885 0-134.281 37.513-170.667 93.628-36.386-56.115-98.782-93.628-170.667-93.628-167.663 0-196.369 50.483-203.435 157.218-61.303 30.891-103.765 127.863-103.765 201.182 0 72.841 41.916 135.27 102.537 166.4 23.381-17.647 49.152-33.655 77.141-47.753-62.157-4.198-111.411-55.433-111.411-118.647 0-37.376 17.545-104.448 44.407-126.362 4.779 14.37 10.786 28.194 18.432 41.028h5.427c0 18.842 15.292 34.133 34.133 34.133s35.499-15.326 34.133-34.133c-2.048-28.706-15.155-34.133-15.155-34.133-11.878-20.070-18.978-43.247-18.978-68.267 0-75.401 36.864-102.4 136.533-102.4 63.556 0 116.463 43.622 131.721 102.4h4.813c0 18.842 15.292 34.133 34.133 34.133s34.133-15.292 34.133-34.133h4.813c15.258-58.778 68.164-102.4 131.721-102.4 99.669 0 136.533 26.999 136.533 102.4 0 25.020-7.1 48.196-18.978 68.267 0 0-13.107 5.427-15.155 34.133-1.365 18.807 15.292 34.133 34.133 34.133s34.133-15.292 34.133-34.133h5.427c7.646-12.834 13.653-26.658 18.432-41.028 26.863 21.914 44.407 88.986 44.407 126.362 0 63.215-49.254 114.449-111.411 118.647 27.989 14.097 53.76 30.106 77.141 47.753 60.621-31.13 102.537-93.559 102.537-166.4 0-73.318-42.462-170.291-103.765-201.182zM785.067 409.6c-11.093-5.154-22.494-10.138-34.133-14.985v-87.415c0-75.401-61.133-136.533-136.533-136.533s-136.533 61.133-136.533 136.533v35.43c-87.518 6.076-168.892 34.475-238.933 66.97-56.559 0-102.4 45.841-102.4 102.4 0 40.243 0.375 85.675 34.133 102.4-7.578 7.168 7.578 3.106 0.614 10.82 6.315 166.059 156.228 330.513 340.719 330.513s334.404-164.454 340.719-330.513c-6.963-7.714 8.192-3.652 0.614-10.82 33.758-16.725 34.133-62.157 34.133-102.4 0-56.559-45.841-102.4-102.4-102.4zM614.4 238.933c37.717 0 68.267 30.549 68.267 68.267v62.362c-43.145-13.619-88.883-23.62-136.533-26.931v-35.43c0-37.717 30.549-68.267 68.267-68.267zM512 887.466c-150.801 0-273.067-114.62-273.067-256 0-6.076 0.99-11.878 1.434-17.818 72.329-48.128 167.219-67.516 271.633-67.516s199.305 19.388 271.633 67.516c0.444 5.939 1.434 11.742 1.434 17.818 0 141.38-122.266 256-273.067 256zM785.067 546.133c0 0-65.877-68.267-273.067-68.267s-273.067 68.267-273.067 68.267c-18.842 0-34.133-15.292-34.133-34.133s15.292-34.133 34.133-34.133v-2.867c75.332-40.858 169.984-65.399 273.067-65.399s197.734 24.542 273.067 65.399v2.867c18.842 0 34.133 15.292 34.133 34.133s-15.292 34.133-34.133 34.133z" />
<glyph unicode="&#xe93e;" glyph-name="relation-suspiction" d="M1024 696.388v-696.388c0-9.421-1.911-18.398-5.359-26.556-10.377-24.508-34.645-41.711-62.908-41.711h-887.467c-14.131 0-27.273 4.301-38.161 11.674-7.27 4.881-13.551 11.162-18.432 18.432-7.373 10.889-11.674 24.030-11.674 38.161v887.467c0 37.717 30.549 68.267 68.267 68.267h887.467c28.262 0 52.531-17.203 62.908-41.711 3.447-8.158 5.359-17.135 5.359-26.556v-191.078zM68.267 887.466v-122.812l122.812 122.812h-122.812zM286.788 887.466l-218.522-218.522v-109.090l327.612 327.612h-109.090zM491.588 887.466l-423.322-423.322v-109.090l532.412 532.412h-109.090zM696.388 887.466l-628.122-628.122v-109.090l737.212 737.212h-109.090zM955.733 887.466h-54.545l-832.922-832.922v-54.545h54.545l832.922 832.922v54.545zM955.733 737.211l-737.212-737.212h109.090l628.122 628.122v109.090zM955.733 532.411l-532.412-532.412h109.090l423.322 423.322v109.090zM955.733 327.611l-327.612-327.612h109.090l218.522 218.522v109.090zM955.733 122.811l-122.812-122.812h122.812v122.812z" />
<glyph unicode="&#xe93f;" glyph-name="relatives" d="M248 653.717c-74.976 0-136 60.992-136 136s61.024 136 136 136 136-60.992 136-136-61.024-136-136-136zM248 861.749c-39.712 0-72-32.32-72-72s32.288-72 72-72 72 32.288 72 71.968-32.288 72.032-72 72.032zM312-38.283h-128c-35.296 0-64 28.704-64 64v242.752l-64 64v237.248c0 35.296 28.704 64 64 64h224c17.664 0 32-14.304 32-32s-14.336-32-32-32h-224v-210.752l64-64v-269.248h128v128c0 17.696 14.336 32 32 32s32-14.304 32-32v-128c0-35.264-28.704-64-64-64zM520 493.205c-63.488 0-115.2 51.68-115.2 115.232 0 63.488 51.712 115.2 115.2 115.2s115.2-51.68 115.2-115.2c0-63.552-51.712-115.232-115.2-115.232zM520 659.605c-28.256 0-51.2-22.976-51.2-51.2 0-28.256 22.944-51.232 51.2-51.232s51.2 22.976 51.2 51.232c0 28.224-22.944 51.2-51.2 51.2zM555.2-38.283h-70.4c-5.248 0-21.152 0-33.152 12.128-11.872 11.936-11.648 26.624-11.648 36.352v160.576l-64 51.2v194.56c0 31.52 25.856 57.184 57.6 57.184h172.8c31.744 0 57.6-25.664 57.6-57.184v-194.592l-64-51.2v-157.44c0.096-12.832 0.224-27.52-11.616-39.456-12-12.128-27.936-12.128-33.184-12.128zM555.2 25.685v-31.936l0.672 32c-0.224-0.032-0.448-0.032-0.672-0.064zM504 25.717h32v175.776l64 51.2v157.024h-160v-157.024l64-51.2v-175.776zM776.832 549.717c-74.976 0-136 60.992-136 136s61.024 136 136 136 136-60.992 136-136-61.024-136-136-136zM776.832 757.717c-39.712 0-72-32.32-72-72s32.288-72 72-72 72 32.32 72 72-32.256 72-72 72zM1032 121.717l-62.848 150.752-27.2 207.52c-3.68 27.872-30.272 57.728-64.032 57.728h-181.92c-17.696 0-32-14.304-32-32s14.304-32 32-32l179.616 0.384c0.992-0.512 2.688-2.4 2.88-2.432l27.744-211.712 29.76-74.208h-80c-17.696 0-32-14.304-32-32v-128h-96v128c0 17.696-14.304 32-32 32s-32-14.304-32-32v-128c0-35.296 28.672-64 64-64h96c35.328 0 64 28.704 64 64v96h144z" />
<glyph unicode="&#xe940;" glyph-name="renhuzhaoguanxi" d="M1019.494 125.986c-2.867-14.268-6.963-28.092-12.117-41.37-12.117-31.3-30.106-59.665-53.419-82.978-21.641-21.572-47.377-39.049-75.947-51.132-2.116-0.922-4.54-1.263-6.69-2.082-12.322-4.813-24.917-9.148-38.127-11.844-15.531-3.174-31.642-4.847-48.128-4.847-131.959 0-238.933 106.974-238.933 238.933 0 14.814 1.775 29.184 4.369 43.281 0.785 4.233 1.843 8.363 2.867 12.527 2.423 10.035 5.461 19.831 9.114 29.321 1.536 4.028 2.935 8.124 4.676 12.049 5.495 12.288 11.776 24.201 19.183 35.294 1.57 2.355 3.55 4.403 5.188 6.69 6.246 8.67 13.005 16.896 20.343 24.644 3.721 3.925 7.68 7.612 11.674 11.264 6.144 5.666 12.629 10.957 19.354 15.974 4.403 3.311 8.738 6.724 13.414 9.694 25.19 16.213 53.487 27.887 83.968 33.69 14.541 2.765 29.457 4.506 44.783 4.506 131.959 0 238.933-106.974 238.933-238.933 0-15.326-1.741-30.174-4.506-44.681zM617.847 204.8h66.867c3.925 45.739 14.95 86.903 29.321 120.388-48.674-22.426-85.265-66.526-96.188-120.388zM684.885 136.533h-67.038c11.093-54.75 48.708-99.465 98.543-121.515-15.189 33.69-27.238 75.264-31.505 121.515zM785.067 0c1.229 0 26.487 58.641 32.734 136.533h-65.502c6.178-77.892 31.13-136.533 32.768-136.533zM785.067 341.333c-1.161 0-26.453-58.641-32.734-136.533h65.502c-6.178 77.892-31.061 136.533-32.768 136.533zM854.596 325.905c14.882-33.621 26.556-75.059 30.72-121.105h66.97c-11.059 54.443-48.265 98.918-97.69 121.105zM885.316 136.533c-4.096-46.012-15.701-87.381-30.515-121.003 49.323 22.221 86.46 66.662 97.485 121.003h-66.97zM740.284 405.094c0 0 0 0 0 0s0 0 0 0 0 0 0 0zM661.811 454.485c18.534-5.734 36.693-12.322 54.374-19.866-32.119-8.363-61.952-22.289-88.303-40.892-36.966 10.138-75.708 15.872-115.883 15.872-245.077 0-443.733-198.656-443.733-443.733h-68.267c0 230.229 151.962 424.892 361.062 489.301-73.591 48.947-122.129 132.506-122.129 227.499 0 150.801 122.266 273.067 273.067 273.067s273.067-122.266 273.067-273.067c0-95.471-49.050-179.371-123.255-228.181zM512 887.466c-113.118 0-204.8-91.682-204.8-204.8s91.682-204.8 204.8-204.8c113.118 0 204.8 91.682 204.8 204.8s-91.682 204.8-204.8 204.8z" />
<glyph unicode="&#xe941;" glyph-name="renshouji-m-guanxi" horiz-adv-x="1022" d="M953.617-68.267v249.685l-143.462-249.958-27.204 14.711-27.204-14.711-143.462 249.958v-249.685h-68.267v341.333h68.267v-14.438l27.204 14.711 143.462-249.958 143.462 249.958 27.204-14.711v14.438h68.267v-341.333h-68.267zM509.884 409.6c-233.54 0-424.516-180.531-442.027-409.6h-68.267c14.234 215.108 161.041 393.865 359.526 455.066-73.66 48.913-122.3 132.54-122.3 227.601 0 150.801 122.266 273.067 273.067 273.067s273.067-122.266 273.067-273.067c0-95.164-48.742-178.859-122.539-227.738 87.654-27.068 164.591-77.517 224.939-143.531v-38.332h-56.593c-80.521 83.934-193.297 136.533-318.874 136.533zM714.684 682.666c0 113.118-91.682 204.8-204.8 204.8s-204.8-91.682-204.8-204.8c0-113.118 91.682-204.8 204.8-204.8s204.8 91.682 204.8 204.8z" />
</font>
</defs>
</svg>
